<?xml version="1.0" encoding="utf-8"?>
<!-- Generator: Adobe Illustrator 21.1.0, SVG Export Plug-In . SVG Version: 6.00 Build 0)  -->
<svg version="1.1" id="レイヤー_1" xmlns="http://www.w3.org/2000/svg" xmlns:xlink="http://www.w3.org/1999/xlink" x="0px"
	 y="0px" viewBox="0 0 792.9 163.7" style="enable-background:new 0 0 792.9 163.7;" xml:space="preserve">
<style type="text/css">
	.st0{fill:url(#SVGID_1_);}
	.st1{fill:url(#SVGID_2_);}
	.st2{fill:url(#SVGID_3_);}
	.st3{fill:url(#SVGID_4_);}
	.st4{fill:url(#SVGID_5_);}
	.st5{fill:url(#SVGID_6_);}
	.st6{fill:url(#SVGID_7_);}
	.st7{fill:#474747;stroke:#474747;stroke-width:3;stroke-miterlimit:10;}
	.st8{fill:none;stroke:#474747;stroke-width:7;stroke-miterlimit:10;}
</style>
<g>
	<g>
		
			<linearGradient id="SVGID_1_" gradientUnits="userSpaceOnUse" x1="29.1769" y1="19.5841" x2="-0.5309" y2="81.8679" gradientTransform="matrix(1 0 0 -1 0 163.4)">
			<stop  offset="0.2" style="stop-color:#BAA1CC"/>
			<stop  offset="0.5" style="stop-color:#CFA7CD"/>
			<stop  offset="0.8" style="stop-color:#E2A1A3"/>
		</linearGradient>
		<path class="st0" d="M36.8,139.5c0.1-0.2,0.2-0.4,0.3-0.5l0,0c0.1-0.2,0.1-0.4,0.2-0.7c0-0.1,0-0.2,0-0.3s0-0.2,0-0.4
			s0-0.3-0.1-0.5c0-0.1,0-0.2,0-0.2c-0.1-0.2-0.1-0.4-0.2-0.7l0,0l-1.8-3.9l-2.2-4.7l-0.9-2.2l-0.9-2.3l-3.6-8.7l-0.8-2l-1.1-2.3
			l-0.9-1.9l-2.1-4.1l-1.1-2.1l-1-1.9L19.3,98l-1.1-2l-2.4-4.3l-2.3-4.4l-1-2.2l-2.2-4.9c0,0,0-0.1-0.1-0.1
			c-0.1-0.1-0.1-0.2-0.2-0.3c-0.1-0.1-0.1-0.2-0.2-0.3c-0.1-0.1-0.1-0.2-0.2-0.3C9.5,79.1,9.4,79,9.4,79c-0.1-0.1-0.2-0.1-0.3-0.2
			c-0.1-0.1-0.2-0.1-0.3-0.2c-0.1-0.1-0.2-0.1-0.3-0.1c-0.1-0.1-0.2-0.1-0.3-0.1H8.1c-0.1,0-0.1,0-0.2,0c-0.1,0-0.2-0.1-0.4-0.1
			c-0.1,0-0.2,0-0.3,0s-0.2,0-0.4,0c-0.1,0-0.2,0-0.3,0s-0.2,0-0.3,0.1c-0.1,0-0.2,0.1-0.3,0.1s-0.1,0-0.2,0.1c0,0-0.1,0-0.1,0.1
			c-0.1,0.1-0.2,0.1-0.3,0.2C5.2,79,5.1,79,5,79.1c-0.1,0.1-0.2,0.1-0.3,0.2c-0.1,0.1-0.2,0.2-0.2,0.2c-0.1,0.1-0.1,0.2-0.2,0.3
			c-0.1,0.1-0.1,0.2-0.2,0.3C4,80.2,4,80.3,4,80.4c-0.1,0.1-0.1,0.2-0.1,0.3v0.1l-2.4,7.8l-0.6,3.1l-0.4,2.9l-0.3,2.8v3.2l0.1,2.9
			l0.4,3.2l0.5,2.8l0.8,2.9l1.1,3l1.2,2.7l1.4,2.7l1.7,2.6l1.9,2.4l2.1,2.3l2.2,2.1l2.2,1.9l2.3,1.8l2.7,1.7l5.1,2.7l2.9,1.2l4,1.5
			h0.1c0.1,0,0.3,0.1,0.4,0.1c0.1,0,0.1,0,0.2,0c0.2,0,0.4,0,0.5,0l0,0l0,0l0,0l0,0c0.2,0,0.4,0,0.6-0.1c0.1,0,0.1,0,0.2,0
			c0.2,0,0.4-0.1,0.6-0.2c0,0,0,0,0.1,0l0,0c0.2-0.1,0.4-0.2,0.5-0.3l0.1-0.1c0.1-0.1,0.2-0.2,0.3-0.3l0.1-0.1
			C36.6,139.9,36.7,139.8,36.8,139.5C36.7,139.6,36.8,139.5,36.8,139.5z M24.2,129.6l-2.2-1.4l-2-1.5l-2-1.7l-1.8-1.7l-1.7-1.9
			l-1.5-2l-1.3-2l-1.2-2.2l-1-2.3l-0.9-2.3L8,108.2l-0.5-2.5l-0.4-2.5L7,100.6v-2.5l0.3-2.5l0.4-2.7l0.2-1.2l1.9,3.5l2.4,4.1l1.1,2
			l1.2,2.1l0.9,1.9l1.1,2.1l1.9,3.9l0.9,1.9l1,2l0.7,1.9l0.9,2.2l3.6,8.8l1,2.4l0.2,0.5L24.2,129.6z"/>
		
			<linearGradient id="SVGID_2_" gradientUnits="userSpaceOnUse" x1="96.6081" y1="3.9757" x2="28.8081" y2="19.6285" gradientTransform="matrix(1 0 0 -1 0 163.4)">
			<stop  offset="0.2" style="stop-color:#A4ABD6"/>
			<stop  offset="0.5" style="stop-color:#A59ACA"/>
			<stop  offset="0.8" style="stop-color:#BAA1CC"/>
		</linearGradient>
		<path class="st1" d="M98.3,151.8c0-0.1,0-0.2,0-0.3s0-0.2,0-0.4c0-0.1-0.1-0.2-0.1-0.3s-0.1-0.2-0.1-0.3c-0.1-0.1-0.1-0.3-0.2-0.4
			c0-0.1-0.1-0.1-0.1-0.2l0,0c-0.1-0.2-0.2-0.3-0.3-0.4l-0.1-0.1c-0.3-0.3-0.6-0.5-1-0.7c0,0-0.1,0-0.1-0.1c-0.1,0-0.2-0.1-0.2-0.1
			c-0.1,0-0.3-0.1-0.4-0.1l0,0l-3.8-0.8l-2.5-0.5l-2.3-0.6l-4.8-1.4l-2.2-0.6L69,141.3l-6.7-1.5l-9.3-1.6l-2.4-0.3l-2.3-0.4
			l-2.4-0.5l-2.5-0.4l-4.8-1.1l-3.7-1c-0.1,0-0.1,0-0.2,0c-0.1,0-0.2,0-0.4-0.1c-0.1,0-0.2,0-0.3,0s-0.2,0-0.3,0s-0.2,0-0.4,0
			c-0.1,0-0.2,0-0.3,0.1c-0.1,0-0.2,0.1-0.3,0.1s-0.2,0.1-0.3,0.1c-0.1,0.1-0.2,0.1-0.3,0.2c-0.1,0-0.1,0.1-0.2,0.1l-0.1,0.1
			c-0.1,0.1-0.2,0.2-0.3,0.3s-0.2,0.1-0.2,0.2c-0.1,0.1-0.1,0.2-0.2,0.3c-0.1,0.1-0.1,0.2-0.2,0.3c-0.1,0.1-0.1,0.2-0.1,0.3
			s-0.1,0.2-0.1,0.3v0.1c0,0.1,0,0.1,0,0.2c0,0.1,0,0.2-0.1,0.4c0,0.1,0,0.2,0,0.3s0,0.2,0,0.3s0,0.2,0,0.3s0,0.2,0.1,0.3
			c0,0.1,0.1,0.2,0.1,0.3s0.1,0.2,0.1,0.3c0.1,0.1,0.1,0.2,0.2,0.3c0,0.1,0.1,0.1,0.1,0.2l2.1,2.9l1.6,2.3l1.7,2.2l1.9,2.3l2.2,2.3
			l2,1.9l2.4,2l2.7,1.8l2.4,1.5l2.8,1.4l2.9,1.1l2.7,0.9l3.1,0.7l3.1,0.4l2.9,0.2h3.2l2.9-0.2l3-0.4l3-0.6l2.8-0.7l3-1.1l2.7-1.2
			l2.6-1.2l2.6-1.4l3.4-2.1l0.1-0.1c0.1-0.1,0.2-0.2,0.3-0.3s0.1-0.1,0.2-0.2c0.1-0.1,0.2-0.2,0.3-0.3c0-0.1,0.1-0.1,0.1-0.2
			c0.1-0.1,0.1-0.2,0.2-0.4c0-0.1,0.1-0.1,0.1-0.2c0.1-0.1,0.1-0.3,0.1-0.4c0-0.1,0-0.1,0.1-0.2l0,0c0-0.1,0-0.1,0-0.2
			C98.3,152.1,98.3,151.9,98.3,151.8z M80.4,155l-2.4,0.6l-2.6,0.6l-2.5,0.4l-2.4,0.1H68l-2.5-0.2l-2.5-0.4l-2.4-0.5l-2.4-0.8
			l-2.4-0.9l-2.2-1.1l-4.3-2.8l-2-1.6l-1.8-1.7l-1.9-1.9l-1.2-1.4l2,0.3l2.4,0.5l2.5,0.4l2.4,0.3l8.9,1.6L67,148l6.4,1.8l4.6,1.4
			l2.3,0.6l4.7,1.4l-2.1,0.9L80.4,155z"/>
		
			<linearGradient id="SVGID_3_" gradientUnits="userSpaceOnUse" x1="150.688" y1="46.9548" x2="96.5681" y2="3.9058" gradientTransform="matrix(1 0 0 -1 0 163.4)">
			<stop  offset="0.2" style="stop-color:#A4C8C8"/>
			<stop  offset="0.5" style="stop-color:#A3BCE2"/>
			<stop  offset="0.8" style="stop-color:#A4ABD6"/>
		</linearGradient>
		<path class="st2" d="M146.9,112.8c0-0.1,0-0.2,0-0.3s0-0.2-0.1-0.4c0-0.1,0-0.2-0.1-0.3c0-0.1-0.1-0.2-0.1-0.3s-0.1-0.2-0.1-0.3
			s-0.1-0.1-0.1-0.2c-0.1-0.1-0.2-0.2-0.2-0.4l0,0c-0.1-0.1-0.1-0.1-0.2-0.2c-0.1-0.1-0.2-0.2-0.3-0.3c-0.1-0.1-0.2-0.1-0.3-0.2
			c-0.1-0.1-0.2-0.1-0.3-0.2c-0.1-0.1-0.2-0.1-0.3-0.1c-0.1,0-0.2-0.1-0.3-0.1c-0.1,0-0.3-0.1-0.4-0.1s-0.2,0-0.2,0l0,0
			c-0.1,0-0.3,0-0.4,0s-0.2,0-0.3,0c-0.1,0-0.2,0-0.4,0.1c-0.1,0-0.2,0-0.3,0.1c-0.1,0-0.2,0.1-0.3,0.1c-0.1,0-0.2,0.1-0.3,0.1
			c-0.1,0-0.2,0.1-0.2,0.2c-0.1,0.1-0.2,0.1-0.3,0.2l0,0l-2.2,1.9l-4,3.2l-3.9,2.9l-7.7,5.3l-3.8,2.8l-3.6,2.8l-1.8,1.5l-3.4,3
			l-1.8,1.5l-3.5,3.3l-3.7,3.3l-5.7,4.8L93,149c0,0,0,0-0.1,0.1s-0.2,0.2-0.3,0.2c-0.1,0.1-0.2,0.2-0.2,0.2
			c-0.1,0.1-0.1,0.2-0.2,0.3c-0.1,0.1-0.1,0.2-0.2,0.3c-0.1,0.1-0.1,0.2-0.1,0.3s-0.1,0.2-0.1,0.3s-0.1,0.2-0.1,0.3
			s-0.1,0.2-0.1,0.4v0.1c0,0.1,0,0.1,0,0.2c0,0.1,0,0.2,0,0.4c0,0.1,0,0.2,0,0.3s0,0.2,0.1,0.3c0,0.1,0.1,0.2,0.1,0.3
			s0.1,0.2,0.1,0.3c0.1,0.1,0.1,0.2,0.2,0.3c0,0.1,0.1,0.1,0.1,0.2c0,0,0,0,0.1,0.1c0.1,0.2,0.3,0.3,0.5,0.5c0,0,0,0,0.1,0.1
			c0.2,0.2,0.4,0.3,0.6,0.4c0.1,0,0.1,0.1,0.2,0.1c0.2,0.1,0.3,0.1,0.5,0.2c0.1,0,0.2,0,0.3,0.1c0.1,0,0.2,0,0.3,0.1l4.2,0.4l3,0.1
			h2.9l2.9-0.1l3-0.3l3-0.5l2.9-0.8l2.8-0.8l2.9-1.3l2.6-1.2l2.6-1.5l2.5-1.8l2.4-2l2.1-2l2.1-2.3l1.9-2.4l1.7-2.5l1.5-2.8l1.2-2.6
			l1.1-2.9l0.9-2.7l0.8-3l0.6-2.9l0.4-2.8l0.3-3.2l0,0C146.9,113.1,146.9,112.9,146.9,112.8z M138.1,123l-0.8,2.4l-0.9,2.4l-1.1,2.3
			l-1.2,2.3l-1.3,2l-1.5,2l-1.7,1.9l-1.8,1.7l-1.9,1.6l-2,1.4l-2.2,1.3l-2.3,1.1l-2.2,1l-2.4,0.7l-2.5,0.7l-2.4,0.5l-2.5,0.3
			l-2.6,0.1h-0.1l2-1.7l3.8-3.4l3.3-3.1l1.8-1.5l3.4-3l1.6-1.3l3.4-2.6l3.6-2.6l7.8-5.4l3.5-2.6L138.1,123z"/>
		
			<linearGradient id="SVGID_4_" gradientUnits="userSpaceOnUse" x1="150.75" y1="116.4944" x2="150.75" y2="46.8946" gradientTransform="matrix(1 0 0 -1 0 163.4)">
			<stop  offset="0.2" style="stop-color:#D2E7AF"/>
			<stop  offset="0.5" style="stop-color:#A5D4AD"/>
			<stop  offset="0.8" style="stop-color:#A4C8C8"/>
		</linearGradient>
		<path class="st3" d="M161.9,78.8l-0.3-3l-0.7-3.1l-0.7-2.8l-1-2.9l-1.2-2.8l-1.4-2.7l-1.6-2.6l-1.6-2.3l-1.8-2.4l-1.9-2.2
			l-3.7-3.9l-0.1-0.1c-0.1-0.1-0.2-0.1-0.2-0.2c-0.1-0.1-0.2-0.2-0.3-0.2c-0.1,0-0.2-0.1-0.2-0.1c-0.1-0.1-0.2-0.1-0.4-0.2
			c-0.1,0-0.2-0.1-0.3-0.1c-0.1,0-0.3-0.1-0.4-0.1s-0.2,0-0.3,0c-0.1,0-0.3,0-0.4,0h-0.1c-0.1,0-0.1,0-0.2,0s-0.3,0-0.4,0.1
			c-0.1,0-0.2,0.1-0.3,0.1c-0.1,0-0.2,0.1-0.3,0.1c-0.1,0-0.2,0.1-0.3,0.2c-0.1,0.1-0.2,0.1-0.3,0.2c-0.1,0.1-0.2,0.1-0.3,0.2
			l-0.1,0.1l-0.1,0.1c-0.1,0.1-0.2,0.2-0.2,0.3c-0.1,0.1-0.1,0.2-0.2,0.3c-0.1,0.1-0.1,0.2-0.2,0.3c-0.1,0.1-0.1,0.2-0.1,0.3
			c0,0.1-0.1,0.2-0.1,0.3c0,0.1-0.1,0.2-0.1,0.3c0,0.1,0,0.2,0,0.3c0,0.1,0,0.2,0,0.4v0.1l0.3,5v2.4l-0.2,5l-0.2,2.3l-0.1,2.6
			l-0.2,2.2l-0.4,9.2v4.7l0.4,9.2l0.2,2.5l0.1,2.3l0.2,2.5l0.2,5v2.4l-0.3,5v0.1c0,0.1,0,0.2,0,0.4c0,0.1,0,0.2,0,0.3
			s0.1,0.2,0.1,0.3s0.1,0.2,0.1,0.3s0.1,0.2,0.1,0.3c0.1,0.1,0.1,0.2,0.2,0.3s0.1,0.2,0.2,0.3s0.2,0.2,0.2,0.3l0.1,0.1l0.1,0.1
			c0.1,0.1,0.2,0.1,0.3,0.2c0.1,0.1,0.2,0.1,0.3,0.2c0.1,0.1,0.2,0.1,0.3,0.1c0.1,0,0.2,0.1,0.3,0.1c0.1,0,0.2,0.1,0.3,0.1
			c0.1,0,0.3,0,0.4,0.1c0.1,0,0.1,0,0.2,0s0.1,0,0.2,0l0,0l0,0l0,0c0.2,0,0.5,0,0.7-0.1h0.1c0.2,0,0.4-0.1,0.6-0.2
			c0.1,0,0.1-0.1,0.2-0.1c0.1-0.1,0.3-0.1,0.4-0.2c0.1,0,0.1-0.1,0.2-0.2c0.1-0.1,0.2-0.2,0.3-0.3c0,0,0,0,0.1-0.1l3.7-3.9l1.8-2
			l1.9-2.4l1.7-2.6l1.5-2.4l1.4-2.6l1.2-2.9l1-2.8l0.8-3l0.6-2.8l0.4-3.2l0.1-3.2L161.9,78.8z M154.9,84.3l-0.3,2.5l-0.5,2.4
			l-0.6,2.5l-0.8,2.4l-1,2.3l-1.2,2.2l-1.4,2.3l-1.4,2.2l-0.5,0.7l-0.1-3.6l-0.2-2.5l-0.1-2.3l-0.2-2.5l-0.4-8.9v-4.3l0.4-9l0.2-2.2
			l0.1-2.6l0.2-2.3l0.1-3.6l0.5,0.7l1.4,2.1l1.4,2.2l1.2,2.3l1,2.2l0.8,2.4l0.7,2.5l0.5,2.5l0.3,2.4l0.1,2.5L154.9,84.3z"/>
		
			<linearGradient id="SVGID_5_" gradientUnits="userSpaceOnUse" x1="-1.0265" y1="81.771" x2="29.2936" y2="143.9365" gradientTransform="matrix(1 0 0 -1 0 163.4)">
			<stop  offset="0.2" style="stop-color:#E2A1A3"/>
			<stop  offset="0.5" style="stop-color:#F49B78"/>
			<stop  offset="0.8" style="stop-color:#F7B280"/>
		</linearGradient>
		<path class="st4" d="M37.5,26.6c0-0.1,0-0.2,0.1-0.4c0-0.1,0-0.2,0.1-0.3c0-0.1,0-0.2,0-0.3c0-0.1,0-0.2,0-0.4
			c0-0.1,0-0.2-0.1-0.3c0-0.1-0.1-0.3-0.1-0.4c0,0,0,0,0-0.1s-0.1-0.1-0.1-0.2c-0.1-0.1-0.1-0.2-0.2-0.4c-0.1-0.1-0.1-0.2-0.2-0.3
			c-0.1-0.1-0.1-0.2-0.2-0.3c-0.1-0.1-0.2-0.2-0.3-0.3c-0.1-0.1-0.2-0.1-0.2-0.2c-0.1-0.1-0.2-0.2-0.3-0.2s-0.1-0.1-0.2-0.1
			c0,0,0,0-0.1,0c-0.1-0.1-0.3-0.1-0.4-0.2c-0.1,0-0.2-0.1-0.3-0.1s-0.2,0-0.4-0.1c-0.1,0-0.2,0-0.3-0.1c-0.1,0-0.2,0-0.3,0
			s-0.2,0-0.4,0c-0.1,0-0.2,0-0.3,0.1c-0.1,0-0.3,0.1-0.4,0.1c0,0,0,0-0.1,0l-4.3,1.5l-2.8,1.2L23.1,26l-2.6,1.5L18,29.1l-2.4,1.7
			l-2.3,2l-2.1,2l-2.1,2.3l-1.9,2.4l-1.7,2.7l-1.4,2.6l-1.2,2.9l-1,2.7l-0.8,3.1l-0.6,2.9l-0.4,2.8L0,62.4v2.9l0.3,3.2l0.4,2.8
			l0.5,2.8l2.5,8.2v0.1c0,0.1,0.1,0.1,0.1,0.2C3.9,82.7,3.9,82.8,4,83c0,0.1,0.1,0.1,0.1,0.2c0.1,0.1,0.2,0.2,0.3,0.3
			c0,0.1,0.1,0.1,0.1,0.2C4.6,83.9,4.8,84,5,84.1l0,0c0.2,0.1,0.3,0.2,0.5,0.3c0,0,0,0,0.1,0h0.1c0.2,0.1,0.3,0.1,0.5,0.2
			c0.1,0,0.1,0,0.2,0c0.2,0,0.4,0.1,0.6,0.1l0,0l0,0l0,0l0,0c0.2,0,0.3,0,0.5,0c0.1,0,0.1,0,0.2,0c0.1,0,0.2,0,0.3-0.1l0,0h0.1
			c0.2-0.1,0.3-0.1,0.5-0.2c0.1,0,0.1-0.1,0.2-0.1C9,84.2,9.1,84.1,9.3,84l0,0c0.2-0.1,0.3-0.3,0.4-0.4l0.1-0.1
			c0.1-0.1,0.2-0.2,0.2-0.4c0-0.1,0.1-0.1,0.1-0.2c0,0,0-0.1,0.1-0.1l2.2-4.8l1.1-2.2l5.8-10.5l1.2-1.9l1.1-2.2l1.1-1.9l4-8.3
			L32,37.9l1-2.2l2.1-4.6l2.1-3.9c0,0,0,0,0-0.1c0.1-0.1,0.1-0.3,0.2-0.4C37.4,26.8,37.4,26.7,37.5,26.6z M26.6,33l-1,2.4l-1.8,4.5
			L22,44.2l-1.7,4.1l-1.9,4l-1.9,3.9l-1.1,1.9l-1,2L13.3,62l-5.4,9.8l-0.2-1.2L7.3,68L7,65.5v-2.6l0.1-2.5L7.5,58L8,55.5l0.6-2.4
			l0.9-2.4l1-2.4l1.2-2.2l1.4-2.2l1.5-2l1.7-1.9l1.8-1.7l1.9-1.7l2-1.4l2.3-1.4l2.2-1.3l0.4-0.2L26.6,33z"/>
		
			<linearGradient id="SVGID_6_" gradientUnits="userSpaceOnUse" x1="96.8566" y1="159.4425" x2="150.4007" y2="116.0834" gradientTransform="matrix(1 0 0 -1 0 163.4)">
			<stop  offset="0.2" style="stop-color:#FCE19C"/>
			<stop  offset="0.5" style="stop-color:#FFF9B1"/>
			<stop  offset="0.8" style="stop-color:#D2E7AF"/>
		</linearGradient>
		<path class="st5" d="M146.9,50.5c0-0.1,0-0.2,0-0.4c0-0.1,0-0.1,0-0.2l-0.3-2.7l-0.4-2.8l-0.5-2.8l-0.8-2.9l-1-2.9l-1.1-2.7
			l-1.3-2.8l-1.4-2.6l-1.6-2.5l-1.8-2.5l-2.2-2.4l-2-2l-2.4-1.9l-2.5-1.8l-2.5-1.6l-2.8-1.4l-2.7-1.1l-2.9-1l-3-0.7l-2.8-0.5
			L107.8,8l-2.9-0.2H102L98.9,8l-4,0.4c-1.7,0.2-3.1,1.6-3.1,3.3c0,0.1,0,0.3,0,0.4v0.1l0,0c0.1,1,0.5,1.9,1.4,2.5l5.2,3.9l1.8,1.5
			l1.9,1.7l1.9,1.6l3.4,3.2l3.6,3.2l1.8,1.4l1.7,1.5l3.5,2.9l1.9,1.4l1.8,1.4l3.9,2.7l1.9,1.4l2.1,1.4l1.9,1.3l3.9,2.9l2,1.6
			l2.1,1.5l2,1.9c0.7,0.6,1.5,0.9,2.4,0.9c1,0,1.9-0.4,2.6-1.1c0.5-0.6,0.8-1.3,0.9-2.1C146.9,50.6,146.9,50.5,146.9,50.5z
			 M135.2,39.5l-2.1-1.5l-2-1.3l-1.8-1.3l-3.8-2.6l-1.7-1.3l-1.8-1.3l-3.3-2.7L117,26l-1.7-1.4l-3.4-3l-3.5-3.3l-2-1.7l-1.9-1.7
			l-0.2-0.2h0.1l2.6,0.2l2.6,0.3l2.5,0.5l2.5,0.5L117,17l2.3,0.9l2.2,1.1l2.2,1.4l2.1,1.5l1.9,1.5l1.8,1.8l1.8,1.8l1.5,2l1.4,2.1
			l1.2,2.2l1.1,2.4l0.9,2.3l0.8,2.5l0.4,1.5L135.2,39.5z"/>
		
			<linearGradient id="SVGID_7_" gradientUnits="userSpaceOnUse" x1="29.1105" y1="144.0201" x2="96.9081" y2="159.0505" gradientTransform="matrix(1 0 0 -1 0 163.4)">
			<stop  offset="0.2" style="stop-color:#F7AF80"/>
			<stop  offset="0.5" style="stop-color:#F9C887"/>
			<stop  offset="0.8" style="stop-color:#FCE19C"/>
		</linearGradient>
		<path class="st6" d="M97.4,9.4c-0.3-0.3-0.7-0.6-1.1-0.7l-3-1.8l-2.4-1.4l-2.7-1.3l-2.6-1.1l-3.1-1l-2.6-0.8l-3.1-0.7l-2.9-0.4
			L70.8,0h-3l-3,0.2l-3,0.4l-3.1,0.8l-2.8,0.8L53,3.4l-2.7,1.3l-2.6,1.5L45.2,8l-2.3,1.8l-2.4,1.9l-2,2l-2,2.3l-3.4,4.6l-1.7,2.8
			c-0.5,0.6-0.8,1.4-0.8,2.3c0,1.2,0.6,2.4,1.7,3.1c0.6,0.3,1.2,0.5,1.8,0.5s1.2-0.2,1.7-0.5l2.6-0.8l2.3-0.6l4.9-1l9.4-1.6l2.2-0.3
			l2.4-0.4l2.3-0.5l2-0.4l4.5-1l4.4-1.2l2.3-0.7l2.2-0.6l7-2.1l2.4-0.6l2.4-0.7l5.5-1c1.2,0.1,2.5-0.5,3.2-1.6
			C98.9,12.3,98.6,10.5,97.4,9.4z M82.8,10.9L75.7,13l-2.2,0.6l-2.3,0.7L67,15.5l-4.2,1l-2,0.4l-2.2,0.5l-2.1,0.4l-2.2,0.3l-9.6,1.6
			l-2.2,0.4l1.3-1.5l1.8-1.8l1.9-1.8l2-1.5l2.1-1.5l2.2-1.3l2.3-1.1l2.4-1l2.4-0.7l2.4-0.6l2.5-0.4l2.5-0.2h2.5l2.5,0.2l2.5,0.4
			l2.5,0.5l2.4,0.7l2.5,0.8l2.2,0.9L82.8,10.9z"/>
	</g>
	<g>
		<path class="st7" d="M334.6,17.8v127.8h-4.3V17.8H334.6z"/>
		<path class="st7" d="M416.2,17.8c12.3,0,22,2.9,29,8.9c6.8,5.7,10.2,14.1,10.2,25.1c0,7.9-2.3,14.9-6.6,20.8
			c-4.7,5.7-10.9,9.3-19.2,11.1v0.4c14.1,3,21.8,11.3,23.1,24.5l1.6,18.3c0.7,7.9,2.3,14.1,5.2,18.8h-4.8
			c-2.5-4.7-3.9-10.6-4.5-17.7l-1.6-19c-0.7-8.4-4.3-14.5-10.4-18.3c-5.4-3.2-12.5-4.8-21.7-4.8h-48.1v59.8h-4.3V17.8H416.2z
			 M368.4,81.6h48c11.1,0,19.9-2.9,26.1-8.6c5.7-5.4,8.6-12.4,8.6-21.1c0-9.7-2.7-16.8-8.1-21.8c-5.9-5.4-14.9-7.9-26.8-7.9h-47.8
			L368.4,81.6L368.4,81.6z"/>
		<path class="st7" d="M606.8,17.8v122.5h81.3v4.3h-85.6V17.8H606.8z"/>
		<path class="st7" d="M792.9,17.8v4.3H710v54.3h78.8v4.3H710v59.6h85.9v4.3h-90.2V17.8H792.9z"/>
		<path class="st8" d="M300.4,114.7c-11.1,17.2-30.4,28.5-52.4,28.5c-34.4,0-62.3-27.9-62.3-62.3s27.9-62.3,62.3-62.3
			c24.8,0,46.2,14.5,56.2,35.4"/>
		<path class="st8" d="M581.4,114.7c-11.1,17.2-30.4,28.5-52.4,28.5c-34.4,0-62.3-27.9-62.3-62.3s27.9-62.3,62.3-62.3
			c24.8,0,46.2,14.5,56.2,35.4"/>
	</g>
</g>
</svg>
