<?xml version="1.0" encoding="utf-8"?>
<!-- Generator: Adobe Illustrator 21.1.0, SVG Export Plug-In . SVG Version: 6.00 Build 0)  -->
<svg version="1.1" id="レイヤー_1" xmlns="http://www.w3.org/2000/svg" xmlns:xlink="http://www.w3.org/1999/xlink" x="0px"
	 y="0px" viewBox="0 0 1040 1040" style="enable-background:new 0 0 1040 1040;" xml:space="preserve">
<style type="text/css">
	.st0{fill:#474747;stroke:#474747;stroke-width:3;stroke-miterlimit:10;}
	.st1{fill:none;stroke:#474747;stroke-width:7;stroke-miterlimit:10;}
	.st2{fill:url(#SVGID_1_);enable-background:new    ;}
	.st3{fill:url(#SVGID_2_);enable-background:new    ;}
	.st4{fill:url(#SVGID_3_);enable-background:new    ;}
	.st5{fill:url(#SVGID_4_);enable-background:new    ;}
	.st6{fill:url(#SVGID_5_);enable-background:new    ;}
	.st7{fill:url(#SVGID_6_);enable-background:new    ;}
	.st8{fill:url(#SVGID_7_);enable-background:new    ;}
</style>
<g>
	<g>
		<path class="st0" d="M460.9,465.5v121.4h-4.1V465.5H460.9z"/>
		<path class="st0" d="M538.4,465.5c11.7,0,20.9,2.7,27.5,8.5c6.5,5.4,9.7,13.4,9.7,23.8c0,7.5-2.2,14.1-6.3,19.7
			c-4.4,5.4-10.4,8.8-18.2,10.5v0.3c13.4,2.9,20.7,10.7,21.9,23.3l1.5,17.3c0.7,7.5,2.2,13.4,4.9,17.8h-4.6
			c-2.4-4.4-3.7-10-4.2-16.8l-1.5-18c-0.7-8-4.1-13.8-9.9-17.3c-5.1-3.1-11.9-4.6-20.6-4.6H493v56.8h-4.1V465.5H538.4z M493,526
			h45.6c10.5,0,18.9-2.7,24.8-8.2c5.4-5.1,8.2-11.7,8.2-20.1c0-9.2-2.5-16-7.6-20.7c-5.6-5.1-14.1-7.5-25.5-7.5H493V526z"/>
		<path class="st0" d="M730.9,465.5v117.3h77.9v4.1h-81.9V465.5H730.9z"/>
		<path class="st0" d="M909.2,465.5v4.1h-79.4v52h75.5v4.1h-75.5v57.1h82.3v4.1h-86.4V465.5H909.2z"/>
		<path class="st1" d="M424.9,559.9c-11.1,17.2-30.4,28.5-52.4,28.5c-34.4,0-62.3-27.9-62.3-62.3s27.9-62.3,62.3-62.3
			c24.8,0,46.2,14.5,56.2,35.4"/>
		<path class="st1" d="M705.9,559.9c-11.1,17.2-30.4,28.5-52.4,28.5c-34.4,0-62.3-27.9-62.3-62.3s27.9-62.3,62.3-62.3
			c24.8,0,46.2,14.5,56.2,35.4"/>
	</g>
	<g>
		<linearGradient id="SVGID_1_" gradientUnits="userSpaceOnUse" x1="153.5827" y1="582.1271" x2="123.8613" y2="519.8148">
			<stop  offset="0.2" style="stop-color:#BAA1CC"/>
			<stop  offset="0.5" style="stop-color:#CFA7CD"/>
			<stop  offset="0.8" style="stop-color:#E2A1A3"/>
		</linearGradient>
		<path class="st2" d="M161.3,577.8c0.1-0.2,0.2-0.4,0.3-0.5c0,0,0,0,0,0c0.1-0.2,0.1-0.4,0.2-0.7c0-0.1,0-0.2,0-0.3
			c0-0.1,0-0.2,0-0.4c0-0.2,0-0.3-0.1-0.5c0-0.1,0-0.2,0-0.2c-0.1-0.2-0.1-0.4-0.2-0.7c0,0,0,0,0,0l-1.8-3.9l-2.2-4.7l-0.9-2.2
			l-0.9-2.3l-3.6-8.7l-0.8-2l-1.1-2.3l-0.9-1.9l-2.1-4.1l-1.1-2.1l-1-1.9l-1.3-2.1l-1.1-2l-2.4-4.3l-2.3-4.4l-1-2.2l-2.2-4.9
			c0,0,0-0.1-0.1-0.1c-0.1-0.1-0.1-0.2-0.2-0.3c-0.1-0.1-0.1-0.2-0.2-0.3c-0.1-0.1-0.1-0.2-0.2-0.3c-0.1-0.1-0.2-0.2-0.2-0.2
			c-0.1-0.1-0.2-0.1-0.3-0.2c-0.1-0.1-0.2-0.1-0.3-0.2c-0.1-0.1-0.2-0.1-0.3-0.1c-0.1-0.1-0.2-0.1-0.3-0.1c0,0-0.1,0-0.1,0
			c-0.1,0-0.1,0-0.2,0c-0.1,0-0.2-0.1-0.4-0.1c-0.1,0-0.2,0-0.3,0c-0.1,0-0.2,0-0.4,0c-0.1,0-0.2,0-0.3,0c-0.1,0-0.2,0-0.3,0.1
			c-0.1,0-0.2,0.1-0.3,0.1c-0.1,0-0.1,0-0.2,0.1c0,0-0.1,0-0.1,0.1c-0.1,0.1-0.2,0.1-0.3,0.2c-0.1,0.1-0.2,0.1-0.3,0.2
			c-0.1,0.1-0.2,0.1-0.3,0.2c-0.1,0.1-0.2,0.2-0.2,0.2c-0.1,0.1-0.1,0.2-0.2,0.3c-0.1,0.1-0.1,0.2-0.2,0.3c-0.1,0.1-0.1,0.2-0.1,0.3
			c-0.1,0.1-0.1,0.2-0.1,0.3c0,0,0,0.1,0,0.1l-2.4,7.8l-0.6,3.1l-0.4,2.9l-0.3,2.8l0,3.2l0.1,2.9l0.4,3.2l0.5,2.8l0.8,2.9l1.1,3
			l1.2,2.7l1.4,2.7l1.7,2.6l1.9,2.4l2.1,2.3l2.2,2.1l2.2,1.9l2.3,1.8l2.7,1.7l5.1,2.7l2.9,1.2l4,1.5c0,0,0.1,0,0.1,0
			c0.1,0,0.3,0.1,0.4,0.1c0.1,0,0.1,0,0.2,0c0.2,0,0.4,0,0.5,0c0,0,0,0,0,0c0,0,0,0,0,0s0,0,0,0c0,0,0,0,0,0c0.2,0,0.4,0,0.6-0.1
			c0.1,0,0.1,0,0.2,0c0.2,0,0.4-0.1,0.6-0.2c0,0,0,0,0.1,0c0,0,0,0,0,0c0.2-0.1,0.4-0.2,0.5-0.3c0,0,0.1-0.1,0.1-0.1
			c0.1-0.1,0.2-0.2,0.3-0.3c0,0,0.1-0.1,0.1-0.1c0.1-0.1,0.2-0.2,0.3-0.4C161.2,577.9,161.3,577.8,161.3,577.8z M148.7,567.9
			l-2.2-1.4l-2-1.5l-2-1.7l-1.8-1.7l-1.7-1.9l-1.5-2l-1.3-2l-1.2-2.2l-1-2.3l-0.9-2.3l-0.6-2.4l-0.5-2.5l-0.4-2.5l-0.1-2.6v-2.5
			l0.3-2.5l0.4-2.7l0.2-1.2l1.9,3.5l2.4,4.1l1.1,2l1.2,2.1l0.9,1.9l1.1,2.1l1.9,3.9l0.9,1.9l1,2l0.7,1.9l0.9,2.2l3.6,8.8l1,2.4
			l0.2,0.5L148.7,567.9z"/>
		<linearGradient id="SVGID_2_" gradientUnits="userSpaceOnUse" x1="221.1161" y1="597.6894" x2="153.3162" y2="582.0366">
			<stop  offset="0.2" style="stop-color:#A4ABD6"/>
			<stop  offset="0.5" style="stop-color:#A59ACA"/>
			<stop  offset="0.8" style="stop-color:#BAA1CC"/>
		</linearGradient>
		<path class="st3" d="M222.8,590.1c0-0.1,0-0.2,0-0.3c0-0.1,0-0.2,0-0.4c0-0.1-0.1-0.2-0.1-0.3c0-0.1-0.1-0.2-0.1-0.3
			c-0.1-0.1-0.1-0.3-0.2-0.4c0-0.1-0.1-0.1-0.1-0.2c0,0,0,0,0,0c-0.1-0.2-0.2-0.3-0.3-0.4c0,0-0.1-0.1-0.1-0.1
			c-0.3-0.3-0.6-0.5-1-0.7c0,0-0.1,0-0.1-0.1c-0.1,0-0.2-0.1-0.2-0.1c-0.1,0-0.3-0.1-0.4-0.1c0,0,0,0,0,0l-3.8-0.8l-2.5-0.5
			l-2.3-0.6l-4.8-1.4l-2.2-0.6l-11.1-3.2l-6.7-1.5l-9.3-1.6l-2.4-0.3l-2.3-0.4l-2.4-0.5l-2.5-0.4l-4.8-1.1l-3.7-1
			c-0.1,0-0.1,0-0.2,0c-0.1,0-0.2,0-0.4-0.1c-0.1,0-0.2,0-0.3,0c-0.1,0-0.2,0-0.3,0c-0.1,0-0.2,0-0.4,0c-0.1,0-0.2,0-0.3,0.1
			c-0.1,0-0.2,0.1-0.3,0.1c-0.1,0-0.2,0.1-0.3,0.1c-0.1,0.1-0.2,0.1-0.3,0.2c-0.1,0-0.1,0.1-0.2,0.1c0,0-0.1,0.1-0.1,0.1
			c-0.1,0.1-0.2,0.2-0.3,0.3c-0.1,0.1-0.2,0.1-0.2,0.2c-0.1,0.1-0.1,0.2-0.2,0.3c-0.1,0.1-0.1,0.2-0.2,0.3c-0.1,0.1-0.1,0.2-0.1,0.3
			c0,0.1-0.1,0.2-0.1,0.3c0,0,0,0.1,0,0.1c0,0.1,0,0.1,0,0.2c0,0.1,0,0.2-0.1,0.4c0,0.1,0,0.2,0,0.3c0,0.1,0,0.2,0,0.3
			c0,0.1,0,0.2,0,0.3c0,0.1,0,0.2,0.1,0.3c0,0.1,0.1,0.2,0.1,0.3c0,0.1,0.1,0.2,0.1,0.3c0.1,0.1,0.1,0.2,0.2,0.3
			c0,0.1,0.1,0.1,0.1,0.2l2.1,2.9l1.6,2.3l1.7,2.2l1.9,2.3l2.2,2.3l2,1.9l2.4,2l2.7,1.8l2.4,1.5l2.8,1.4l2.9,1.1l2.7,0.9l3.1,0.7
			l3.1,0.4l2.9,0.2l3.2,0l2.9-0.2l3-0.4l3-0.6l2.8-0.7l3-1.1l2.7-1.2l2.6-1.2l2.6-1.4l3.4-2.1c0,0,0.1-0.1,0.1-0.1
			c0.1-0.1,0.2-0.2,0.3-0.3c0.1-0.1,0.1-0.1,0.2-0.2c0.1-0.1,0.2-0.2,0.3-0.3c0-0.1,0.1-0.1,0.1-0.2c0.1-0.1,0.1-0.2,0.2-0.4
			c0-0.1,0.1-0.1,0.1-0.2c0.1-0.1,0.1-0.3,0.1-0.4c0-0.1,0-0.1,0.1-0.2c0,0,0,0,0,0c0-0.1,0-0.1,0-0.2
			C222.8,590.4,222.8,590.2,222.8,590.1z M204.9,593.3l-2.4,0.6l-2.6,0.6l-2.5,0.4L195,595h-2.5l-2.5-0.2l-2.5-0.4l-2.4-0.5
			l-2.4-0.8l-2.4-0.9l-2.2-1.1l-4.3-2.8l-2-1.6L170,585l-1.9-1.9l-1.2-1.4l2,0.3l2.4,0.5l2.5,0.4l2.4,0.3l8.9,1.6l6.4,1.5l6.4,1.8
			l4.6,1.4l2.3,0.6l4.7,1.4l-2.1,0.9L204.9,593.3z"/>
		<linearGradient id="SVGID_3_" gradientUnits="userSpaceOnUse" x1="275.0549" y1="554.5779" x2="220.912" y2="597.6451">
			<stop  offset="0.2" style="stop-color:#A4C8C8"/>
			<stop  offset="0.5" style="stop-color:#A3BCE2"/>
			<stop  offset="0.8" style="stop-color:#A4ABD6"/>
		</linearGradient>
		<path class="st4" d="M271.4,551.1c0-0.1,0-0.2,0-0.3c0-0.1,0-0.2-0.1-0.4c0-0.1,0-0.2-0.1-0.3c0-0.1-0.1-0.2-0.1-0.3
			c0-0.1-0.1-0.2-0.1-0.3c0-0.1-0.1-0.1-0.1-0.2c-0.1-0.1-0.2-0.2-0.2-0.4c0,0,0,0,0,0c-0.1-0.1-0.1-0.1-0.2-0.2
			c-0.1-0.1-0.2-0.2-0.3-0.3c-0.1-0.1-0.2-0.1-0.3-0.2c-0.1-0.1-0.2-0.1-0.3-0.2c-0.1-0.1-0.2-0.1-0.3-0.1c-0.1,0-0.2-0.1-0.3-0.1
			c-0.1,0-0.3-0.1-0.4-0.1c-0.1,0-0.2,0-0.2,0c0,0,0,0,0,0c-0.1,0-0.3,0-0.4,0c-0.1,0-0.2,0-0.3,0c-0.1,0-0.2,0-0.4,0.1
			c-0.1,0-0.2,0-0.3,0.1c-0.1,0-0.2,0.1-0.3,0.1c-0.1,0-0.2,0.1-0.3,0.1c-0.1,0-0.2,0.1-0.2,0.2c-0.1,0.1-0.2,0.1-0.3,0.2
			c0,0,0,0,0,0l-2.2,1.9l-4,3.2l-3.9,2.9l-7.7,5.3l-3.8,2.8l-3.6,2.8l-1.8,1.5l-3.4,3l-1.8,1.5l-3.5,3.3l-3.7,3.3l-5.7,4.8l-3.3,2.5
			c0,0,0,0-0.1,0.1c-0.1,0.1-0.2,0.2-0.3,0.2c-0.1,0.1-0.2,0.2-0.2,0.2c-0.1,0.1-0.1,0.2-0.2,0.3c-0.1,0.1-0.1,0.2-0.2,0.3
			c-0.1,0.1-0.1,0.2-0.1,0.3c0,0.1-0.1,0.2-0.1,0.3c0,0.1-0.1,0.2-0.1,0.3c0,0.1-0.1,0.2-0.1,0.4c0,0,0,0.1,0,0.1c0,0.1,0,0.1,0,0.2
			c0,0.1,0,0.2,0,0.4c0,0.1,0,0.2,0,0.3c0,0.1,0,0.2,0.1,0.3c0,0.1,0.1,0.2,0.1,0.3c0,0.1,0.1,0.2,0.1,0.3c0.1,0.1,0.1,0.2,0.2,0.3
			c0,0.1,0.1,0.1,0.1,0.2c0,0,0,0,0.1,0.1c0.1,0.2,0.3,0.3,0.5,0.5c0,0,0,0,0.1,0.1c0.2,0.2,0.4,0.3,0.6,0.4c0.1,0,0.1,0.1,0.2,0.1
			c0.2,0.1,0.3,0.1,0.5,0.2c0.1,0,0.2,0,0.3,0.1c0.1,0,0.2,0,0.3,0.1l4.2,0.4l3,0.1l2.9,0l2.9-0.1l3-0.3l3-0.5l2.9-0.8l2.8-0.8
			l2.9-1.3l2.6-1.2l2.6-1.5l2.5-1.8l2.4-2l2.1-2l2.1-2.3l1.9-2.4l1.7-2.5l1.5-2.8l1.2-2.6l1.1-2.9l0.9-2.7l0.8-3l0.6-2.9l0.4-2.8
			l0.3-3.2c0,0,0,0,0,0C271.4,551.4,271.4,551.2,271.4,551.1z M262.6,561.3l-0.8,2.4l-0.9,2.4l-1.1,2.3l-1.2,2.3l-1.3,2l-1.5,2
			l-1.7,1.9l-1.8,1.7l-1.9,1.6l-2,1.4l-2.2,1.3l-2.3,1.1l-2.2,1l-2.4,0.7l-2.5,0.7l-2.4,0.5l-2.5,0.3l-2.6,0.1h-0.1l2-1.7l3.8-3.4
			l3.3-3.1l1.8-1.5l3.4-3l1.6-1.3l3.4-2.6l3.6-2.6l7.8-5.4l3.5-2.6L262.6,561.3z"/>
		<linearGradient id="SVGID_4_" gradientUnits="userSpaceOnUse" x1="275.0513" y1="485.2056" x2="275.0513" y2="554.7998">
			<stop  offset="0.2" style="stop-color:#D2E7AF"/>
			<stop  offset="0.5" style="stop-color:#A5D4AD"/>
			<stop  offset="0.8" style="stop-color:#A4C8C8"/>
		</linearGradient>
		<path class="st5" d="M286.4,517.1l-0.3-3l-0.7-3.1l-0.7-2.8l-1-2.9l-1.2-2.8l-1.4-2.7l-1.6-2.6l-1.6-2.3l-1.8-2.4l-1.9-2.2
			l-3.7-3.9c0,0-0.1-0.1-0.1-0.1c-0.1-0.1-0.2-0.1-0.2-0.2c-0.1-0.1-0.2-0.2-0.3-0.2c-0.1,0-0.2-0.1-0.2-0.1
			c-0.1-0.1-0.2-0.1-0.4-0.2c-0.1,0-0.2-0.1-0.3-0.1c-0.1,0-0.3-0.1-0.4-0.1c-0.1,0-0.2,0-0.3,0c-0.1,0-0.3,0-0.4,0c0,0-0.1,0-0.1,0
			c-0.1,0-0.1,0-0.2,0c-0.1,0-0.3,0-0.4,0.1c-0.1,0-0.2,0.1-0.3,0.1c-0.1,0-0.2,0.1-0.3,0.1c-0.1,0-0.2,0.1-0.3,0.2
			c-0.1,0.1-0.2,0.1-0.3,0.2c-0.1,0.1-0.2,0.1-0.3,0.2c0,0-0.1,0.1-0.1,0.1c0,0-0.1,0.1-0.1,0.1c-0.1,0.1-0.2,0.2-0.2,0.3
			c-0.1,0.1-0.1,0.2-0.2,0.3c-0.1,0.1-0.1,0.2-0.2,0.3c-0.1,0.1-0.1,0.2-0.1,0.3c0,0.1-0.1,0.2-0.1,0.3c0,0.1-0.1,0.2-0.1,0.3
			c0,0.1,0,0.2,0,0.3c0,0.1,0,0.2,0,0.4c0,0,0,0.1,0,0.1l0.3,5v2.4l-0.2,5l-0.2,2.3l-0.1,2.6l-0.2,2.2l-0.4,9.2l0,4.7l0.4,9.2
			l0.2,2.5l0.1,2.3l0.2,2.5l0.2,5v2.4l-0.3,5c0,0,0,0.1,0,0.1c0,0.1,0,0.2,0,0.4c0,0.1,0,0.2,0,0.3c0,0.1,0.1,0.2,0.1,0.3
			c0,0.1,0.1,0.2,0.1,0.3c0,0.1,0.1,0.2,0.1,0.3c0.1,0.1,0.1,0.2,0.2,0.3c0.1,0.1,0.1,0.2,0.2,0.3c0.1,0.1,0.2,0.2,0.2,0.3
			c0,0,0.1,0.1,0.1,0.1c0,0,0.1,0.1,0.1,0.1c0.1,0.1,0.2,0.1,0.3,0.2c0.1,0.1,0.2,0.1,0.3,0.2c0.1,0.1,0.2,0.1,0.3,0.1
			c0.1,0,0.2,0.1,0.3,0.1c0.1,0,0.2,0.1,0.3,0.1c0.1,0,0.3,0,0.4,0.1c0.1,0,0.1,0,0.2,0c0.1,0,0.1,0,0.2,0c0,0,0,0,0,0c0,0,0,0,0,0
			c0,0,0,0,0,0c0.2,0,0.5,0,0.7-0.1c0,0,0.1,0,0.1,0c0.2,0,0.4-0.1,0.6-0.2c0.1,0,0.1-0.1,0.2-0.1c0.1-0.1,0.3-0.1,0.4-0.2
			c0.1,0,0.1-0.1,0.2-0.2c0.1-0.1,0.2-0.2,0.3-0.3c0,0,0,0,0.1-0.1l3.7-3.9l1.8-2l1.9-2.4l1.7-2.6l1.5-2.4l1.4-2.6l1.2-2.9l1-2.8
			l0.8-3l0.6-2.8l0.4-3.2l0.1-3.2L286.4,517.1z M279.4,522.6l-0.3,2.5l-0.5,2.4l-0.6,2.5l-0.8,2.4l-1,2.3l-1.2,2.2l-1.4,2.3
			l-1.4,2.2l-0.5,0.7l-0.1-3.6l-0.2-2.5l-0.1-2.3l-0.2-2.5l-0.4-8.9v-4.3l0.4-9l0.2-2.2l0.1-2.6l0.2-2.3l0.1-3.6l0.5,0.7l1.4,2.1
			l1.4,2.2l1.2,2.3l1,2.2l0.8,2.4l0.7,2.5l0.5,2.5l0.3,2.4l0.1,2.5L279.4,522.6z"/>
		<linearGradient id="SVGID_5_" gradientUnits="userSpaceOnUse" x1="123.612" y1="519.9966" x2="153.9321" y2="457.8311">
			<stop  offset="0.2" style="stop-color:#E2A1A3"/>
			<stop  offset="0.5" style="stop-color:#F49B78"/>
			<stop  offset="0.8" style="stop-color:#F7B280"/>
		</linearGradient>
		<path class="st6" d="M162,464.9c0-0.1,0-0.2,0.1-0.4c0-0.1,0-0.2,0.1-0.3c0-0.1,0-0.2,0-0.3c0-0.1,0-0.2,0-0.4
			c0-0.1,0-0.2-0.1-0.3c0-0.1-0.1-0.3-0.1-0.4c0,0,0,0,0-0.1c0-0.1-0.1-0.1-0.1-0.2c-0.1-0.1-0.1-0.2-0.2-0.4
			c-0.1-0.1-0.1-0.2-0.2-0.3c-0.1-0.1-0.1-0.2-0.2-0.3c-0.1-0.1-0.2-0.2-0.3-0.3c-0.1-0.1-0.2-0.1-0.2-0.2c-0.1-0.1-0.2-0.2-0.3-0.2
			c-0.1,0-0.1-0.1-0.2-0.1c0,0,0,0-0.1,0c-0.1-0.1-0.3-0.1-0.4-0.2c-0.1,0-0.2-0.1-0.3-0.1c-0.1,0-0.2,0-0.4-0.1
			c-0.1,0-0.2,0-0.3-0.1c-0.1,0-0.2,0-0.3,0c-0.1,0-0.2,0-0.4,0c-0.1,0-0.2,0-0.3,0.1c-0.1,0-0.3,0.1-0.4,0.1c0,0,0,0-0.1,0
			l-4.3,1.5l-2.8,1.2l-2.6,1.2l-2.6,1.5l-2.5,1.6l-2.4,1.7l-2.3,2l-2.1,2l-2.1,2.3l-1.9,2.4l-1.7,2.7l-1.4,2.6l-1.2,2.9l-1,2.7
			l-0.8,3.1l-0.6,2.9l-0.4,2.8l-0.1,3.2l0,2.9l0.3,3.2l0.4,2.8l0.5,2.8l2.5,8.2c0,0,0,0.1,0,0.1c0,0.1,0.1,0.1,0.1,0.2
			c0.1,0.1,0.1,0.2,0.2,0.4c0,0.1,0.1,0.1,0.1,0.2c0.1,0.1,0.2,0.2,0.3,0.3c0,0.1,0.1,0.1,0.1,0.2c0.1,0.2,0.3,0.3,0.5,0.4
			c0,0,0,0,0,0c0.2,0.1,0.3,0.2,0.5,0.3c0,0,0,0,0.1,0c0,0,0.1,0,0.1,0c0.2,0.1,0.3,0.1,0.5,0.2c0.1,0,0.1,0,0.2,0
			c0.2,0,0.4,0.1,0.6,0.1c0,0,0,0,0,0c0,0,0,0,0,0s0,0,0,0c0,0,0,0,0,0c0.2,0,0.3,0,0.5,0c0.1,0,0.1,0,0.2,0c0.1,0,0.2,0,0.3-0.1
			c0,0,0,0,0,0c0,0,0.1,0,0.1,0c0.2-0.1,0.3-0.1,0.5-0.2c0.1,0,0.1-0.1,0.2-0.1c0.2-0.1,0.3-0.2,0.5-0.3c0,0,0,0,0,0
			c0.2-0.1,0.3-0.3,0.4-0.4c0,0,0.1-0.1,0.1-0.1c0.1-0.1,0.2-0.2,0.2-0.4c0-0.1,0.1-0.1,0.1-0.2c0,0,0-0.1,0.1-0.1l2.2-4.8l1.1-2.2
			l5.8-10.5l1.2-1.9l1.1-2.2l1.1-1.9l4-8.3l5.3-13.1l1-2.2l2.1-4.6l2.1-3.9c0,0,0,0,0-0.1c0.1-0.1,0.1-0.3,0.2-0.4
			C161.9,465.1,161.9,465,162,464.9z M151.1,471.3l-1,2.4l-1.8,4.5l-1.8,4.3l-1.7,4.1l-1.9,4l-1.9,3.9l-1.1,1.9l-1,2l-1.1,1.9
			l-5.4,9.8l-0.2-1.2l-0.4-2.6l-0.3-2.5v-2.6l0.1-2.5l0.4-2.4l0.5-2.5l0.6-2.4l0.9-2.4l1-2.4l1.2-2.2l1.4-2.2l1.5-2l1.7-1.9l1.8-1.7
			l1.9-1.7l2-1.4l2.3-1.4l2.2-1.3l0.4-0.2L151.1,471.3z"/>
		<linearGradient id="SVGID_6_" gradientUnits="userSpaceOnUse" x1="221.2912" y1="442.3383" x2="274.8352" y2="485.6974">
			<stop  offset="0.2" style="stop-color:#FCE19C"/>
			<stop  offset="0.5" style="stop-color:#FFF9B1"/>
			<stop  offset="0.8" style="stop-color:#D2E7AF"/>
		</linearGradient>
		<path class="st7" d="M271.4,488.8c0-0.1,0-0.2,0-0.4c0-0.1,0-0.1,0-0.2l-0.3-2.7l-0.4-2.8l-0.5-2.8l-0.8-2.9l-1-2.9l-1.1-2.7
			l-1.3-2.8l-1.4-2.6l-1.6-2.5l-1.8-2.5l-2.2-2.4l-2-2l-2.4-1.9l-2.5-1.8l-2.5-1.6l-2.8-1.4l-2.7-1.1l-2.9-1l-3-0.7l-2.8-0.5
			l-3.1-0.3l-2.9-0.2l-2.9,0l-3.1,0.2l-4,0.4c-1.7,0.2-3.1,1.6-3.1,3.3c0,0.1,0,0.3,0,0.4c0,0,0,0.1,0,0.1c0,0,0,0,0,0
			c0.1,1,0.5,1.9,1.4,2.5l5.2,3.9l1.8,1.5l1.9,1.7l1.9,1.6l3.4,3.2l3.6,3.2l1.8,1.4l1.7,1.5l3.5,2.9l1.9,1.4l1.8,1.4l3.9,2.7
			l1.9,1.4l2.1,1.4l1.9,1.3l3.9,2.9l2,1.6l2.1,1.5l2,1.9c0.7,0.6,1.5,0.9,2.4,0.9c1,0,1.9-0.4,2.6-1.1c0.5-0.6,0.8-1.3,0.9-2.1
			C271.4,488.9,271.4,488.8,271.4,488.8z M259.7,477.8l-2.1-1.5l-2-1.3l-1.8-1.3l-3.8-2.6l-1.7-1.3l-1.8-1.3l-3.3-2.7l-1.7-1.5
			l-1.7-1.4l-3.4-3l-3.5-3.3l-2-1.7l-1.9-1.7l-0.2-0.2h0.1l2.6,0.2l2.6,0.3l2.5,0.5l2.5,0.5l2.4,0.8l2.3,0.9l2.2,1.1l2.2,1.4
			l2.1,1.5l1.9,1.5l1.8,1.8l1.8,1.8l1.5,2l1.4,2.1l1.2,2.2l1.1,2.4l0.9,2.3l0.8,2.5l0.4,1.5L259.7,477.8z"/>
		<linearGradient id="SVGID_7_" gradientUnits="userSpaceOnUse" x1="153.5953" y1="457.6377" x2="221.4003" y2="442.6057">
			<stop  offset="0.2" style="stop-color:#F7AF80"/>
			<stop  offset="0.5" style="stop-color:#F9C887"/>
			<stop  offset="0.8" style="stop-color:#FCE19C"/>
		</linearGradient>
		<path class="st8" d="M221.9,447.7c-0.3-0.3-0.7-0.6-1.1-0.7l-3-1.8l-2.4-1.4l-2.7-1.3l-2.6-1.1l-3.1-1l-2.6-0.8l-3.1-0.7l-2.9-0.4
			l-3.1-0.2l-3,0l-3,0.2l-3,0.4l-3.1,0.8l-2.8,0.8l-2.9,1.2l-2.7,1.3l-2.6,1.5l-2.5,1.8l-2.3,1.8L165,450l-2,2l-2,2.3l-3.4,4.6
			l-1.7,2.8c-0.5,0.6-0.8,1.4-0.8,2.3c0,1.2,0.6,2.4,1.7,3.1c0.6,0.3,1.2,0.5,1.8,0.5c0.6,0,1.2-0.2,1.7-0.5l2.6-0.8l2.3-0.6l4.9-1
			l9.4-1.6l2.2-0.3l2.4-0.4l2.3-0.5l2-0.4l4.5-1l4.4-1.2l2.3-0.7l2.2-0.6l7-2.1l2.4-0.6l2.4-0.7l5.5-1c1.2,0.1,2.5-0.5,3.2-1.6
			C223.4,450.6,223.1,448.8,221.9,447.7z M207.3,449.2l-7.1,2.1l-2.2,0.6l-2.3,0.7l-4.2,1.2l-4.2,1l-2,0.4l-2.2,0.5l-2.1,0.4
			l-2.2,0.3l-9.6,1.6l-2.2,0.4l1.3-1.5l1.8-1.8l1.9-1.8l2-1.5l2.1-1.5l2.2-1.3l2.3-1.1l2.4-1l2.4-0.7l2.4-0.6l2.5-0.4l2.5-0.2h2.5
			l2.5,0.2l2.5,0.4l2.5,0.5l2.4,0.7l2.5,0.8l2.2,0.9L207.3,449.2z"/>
	</g>
</g>
</svg>
