<?xml version="1.0" encoding="utf-8"?>
<!-- Generator: Adobe Illustrator 21.1.0, SVG Export Plug-In . SVG Version: 6.00 Build 0)  -->
<svg version="1.1" id="レイヤー_1" xmlns="http://www.w3.org/2000/svg" xmlns:xlink="http://www.w3.org/1999/xlink" x="0px"
	 y="0px" viewBox="0 0 1040 1040" style="enable-background:new 0 0 1040 1040;" xml:space="preserve">
<style type="text/css">
	.st0{fill:#474747;stroke:#474747;stroke-width:3;stroke-miterlimit:10;}
	.st1{fill:none;stroke:#474747;stroke-width:7;stroke-miterlimit:10;}
	.st2{opacity:0.5;fill:none;stroke:#A3BCE2;stroke-width:7;stroke-linecap:round;stroke-miterlimit:10;}
	.st3{opacity:0.5;fill:none;stroke:#A59ACA;stroke-width:7;stroke-linecap:round;stroke-miterlimit:10;}
	.st4{opacity:0.5;fill:none;stroke:#CFA7CD;stroke-width:7;stroke-linecap:round;stroke-miterlimit:10;}
	.st5{opacity:0.5;fill:none;stroke:#F5B090;stroke-width:7;stroke-linecap:round;stroke-miterlimit:10;}
	.st6{opacity:0.5;fill:none;stroke:#FCD7A1;stroke-width:7;stroke-linecap:round;stroke-miterlimit:10;}
	.st7{opacity:0.5;fill:none;stroke:#FFF9B1;stroke-width:7;stroke-linecap:round;stroke-miterlimit:10;}
	.st8{opacity:0.5;fill:none;stroke:#A5D4AD;stroke-width:7;stroke-linecap:round;stroke-miterlimit:10;}
</style>
<g>
	<g>
		<path class="st0" d="M460.9,465.5v121.4h-4.1V465.5H460.9z"/>
		<path class="st0" d="M538.4,465.5c11.7,0,20.9,2.7,27.5,8.5c6.5,5.4,9.7,13.4,9.7,23.8c0,7.5-2.2,14.1-6.3,19.7
			c-4.4,5.4-10.4,8.8-18.2,10.5v0.3c13.4,2.9,20.7,10.7,21.9,23.3l1.5,17.3c0.7,7.5,2.2,13.4,4.9,17.8h-4.6
			c-2.4-4.4-3.7-10-4.2-16.8l-1.5-18c-0.7-8-4.1-13.8-9.9-17.3c-5.1-3.1-11.9-4.6-20.6-4.6H493v56.8h-4.1V465.5H538.4z M493,526
			h45.6c10.5,0,18.9-2.7,24.8-8.2c5.4-5.1,8.2-11.7,8.2-20.1c0-9.2-2.5-16-7.6-20.7c-5.6-5.1-14.1-7.5-25.5-7.5H493V526z"/>
		<path class="st0" d="M730.9,465.5v117.3h77.9v4.1h-81.9V465.5H730.9z"/>
		<path class="st0" d="M909.2,465.5v4.1h-79.4v52h75.5v4.1h-75.5v57.1h82.3v4.1h-86.4V465.5H909.2z"/>
		<path class="st1" d="M424.9,559.9c-11.1,17.2-30.4,28.5-52.4,28.5c-34.4,0-62.3-27.9-62.3-62.3s27.9-62.3,62.3-62.3
			c24.8,0,46.2,14.5,56.2,35.4"/>
		<path class="st1" d="M705.9,559.9c-11.1,17.2-30.4,28.5-52.4,28.5c-34.4,0-62.3-27.9-62.3-62.3s27.9-62.3,62.3-62.3
			c24.8,0,46.2,14.5,56.2,35.4"/>
	</g>
	<g>
		<polyline class="st2" points="219.3,590 222.7,587.5 224.8,585.8 226.7,584.2 228.6,582.6 230.5,580.9 232.3,579.3 234,577.7 
			235.7,576.1 237.5,574.6 239.2,573.1 240.9,571.6 242.6,570.2 244.3,568.9 246.1,567.5 247.9,566.2 249.8,564.8 251.7,563.5 
			253.6,562.2 255.6,560.8 257.6,559.4 259.6,557.9 261.6,556.4 263.6,554.8 265.7,553.1 267.9,551.2 		"/>
		<polyline class="st3" points="158.3,576 160.5,579 162.1,581.3 163.7,583.4 165.5,585.5 167.5,587.5 169.5,589.4 171.7,591.2 
			174,592.7 176.4,594.2 178.9,595.4 181.5,596.4 184.1,597.3 186.8,597.9 189.6,598.3 192.3,598.5 195.1,598.5 197.9,598.3 
			200.6,597.9 203.4,597.3 206,596.6 208.7,595.6 211.2,594.5 213.7,593.3 216.1,592 219.3,590 		"/>
		<polyline class="st4" points="131.6,520 133.8,524.9 134.9,527.2 136.1,529.5 137.3,531.7 138.5,533.8 139.7,535.9 140.8,538 
			142,540 143,542 144.1,544 145.1,546 146.1,548 147,550 148,552 148.8,554.1 149.7,556.2 150.6,558.4 151.5,560.6 152.4,562.8 
			153.3,565.1 154.3,567.4 155.4,569.7 156.5,572.1 158.3,576 		"/>
		<polyline class="st5" points="158.6,464 154.3,465.5 151.8,466.6 149.3,467.8 146.9,469.2 144.5,470.7 142.3,472.3 140.2,474.1 
			138.2,476 136.3,478.1 134.6,480.3 133.1,482.7 131.8,485.1 130.7,487.7 129.7,490.3 129,493 128.5,495.7 128.1,498.4 128,501.2 
			128,504 128.3,506.8 128.7,509.5 129.2,512.2 130,514.9 131.6,520 		"/>
		<polyline class="st6" points="219.4,450.1 215.6,450.8 213,451.3 210.5,452 208.1,452.6 205.7,453.3 203.4,454 201.1,454.7 
			198.8,455.3 196.6,456 194.4,456.6 192.3,457.2 190.1,457.7 187.9,458.2 185.8,458.6 183.6,459.1 181.3,459.5 179,459.8 
			176.7,460.2 174.4,460.6 172,461 169.5,461.4 167,461.9 164.5,462.4 162,463 158.6,464 		"/>
		<polyline class="st7" points="267.9,488.6 267.6,485.9 267.2,483.2 266.7,480.5 266,477.8 265.1,475.1 264.1,472.6 262.9,470 
			261.6,467.6 260.1,465.3 258.4,463 256.5,461 254.5,459 252.4,457.3 250.1,455.7 247.7,454.2 245.2,453 242.7,452 240,451.1 
			237.3,450.5 234.6,450 231.8,449.7 229,449.5 226.3,449.5 223.5,449.7 219.5,450.1 		"/>
		<polyline class="st8" points="267.9,551.3 268.2,546.2 268.2,543.6 268.1,541 268,538.5 267.8,536.1 267.7,533.7 267.5,531.3 
			267.4,529 267.3,526.7 267.2,524.5 267.1,522.3 267.1,520 267.1,517.8 267.2,515.6 267.3,513.3 267.4,511 267.5,508.7 
			267.7,506.4 267.8,503.9 268,501.5 268.1,499 268.2,496.4 268.2,493.8 267.9,488.7 		"/>
		<polyline class="st2" points="219.3,590 223.5,590.4 226.3,590.5 229,590.5 231.8,590.4 234.6,590.1 237.3,589.6 240,588.9 
			242.7,588.1 245.2,587 247.7,585.8 250.1,584.4 252.4,582.8 254.5,581 256.5,579.1 258.4,577 260.1,574.8 261.6,572.5 262.9,570 
			264.1,567.5 265.1,564.9 266,562.3 266.7,559.6 267.2,556.9 267.6,554.2 267.9,551.2 		"/>
		<polyline class="st3" points="158.3,576 162,577 164.5,577.6 167,578.2 169.5,578.6 172,579.1 174.4,579.5 176.7,579.8 179,580.2 
			181.3,580.6 183.6,581 185.8,581.4 187.9,581.9 190.1,582.4 192.3,582.9 194.4,583.5 196.6,584.1 198.8,584.7 201.1,585.4 
			203.4,586.1 205.7,586.7 208.1,587.4 210.5,588.1 213,588.7 215.6,589.2 219.3,590 		"/>
		<polyline class="st4" points="131.6,520 130,525.2 129.2,527.8 128.7,530.5 128.3,533.3 128,536 128,538.8 128.1,541.6 
			128.5,544.4 129,547.1 129.7,549.8 130.7,552.4 131.8,554.9 133.1,557.4 134.6,559.7 136.3,561.9 138.2,564 140.2,565.9 
			142.3,567.7 144.5,569.4 146.9,570.9 149.3,572.2 151.8,573.5 154.3,574.5 158.3,576 		"/>
		<polyline class="st5" points="158.6,464 156.5,468 155.4,470.3 154.3,472.7 153.3,475 152.4,477.2 151.5,479.5 150.6,481.7 
			149.7,483.8 148.8,486 148,488 147,490.1 146.1,492.1 145.1,494.1 144.1,496.1 143,498.1 142,500.1 140.8,502.1 139.7,504.1 
			138.5,506.2 137.3,508.4 136.1,510.6 134.9,512.8 133.8,515.1 131.6,520 		"/>
		<polyline class="st7" points="267.9,488.7 265.7,486.7 263.6,485.2 261.6,483.6 259.6,482.1 257.6,480.6 255.6,479.2 253.6,477.9 
			251.7,476.5 249.8,475.2 247.9,473.9 246.1,472.5 244.3,471.2 242.6,469.8 240.9,468.4 239.2,466.9 237.5,465.5 235.7,463.9 
			234,462.4 232.3,460.8 230.5,459.1 228.6,457.5 226.7,455.8 224.8,454.2 222.7,452.6 219.5,450.2 		"/>
		<polyline class="st8" points="267.9,488.7 271.5,492.5 273.3,494.6 275,496.8 276.5,499 278,501.4 279.3,503.9 280.4,506.4 
			281.3,509.1 282,511.8 282.6,514.5 282.9,517.2 283,520 282.9,522.8 282.6,525.6 282,528.3 281.3,531 280.4,533.6 279.3,536.2 
			278,538.6 276.5,541 275,543.3 273.3,545.5 271.5,547.5 267.9,551.3 		"/>
		<polyline class="st6" points="219.5,450.2 216.1,448.1 213.7,446.7 211.2,445.5 208.7,444.4 206,443.5 203.4,442.7 200.6,442.1 
			197.9,441.7 195.1,441.5 192.3,441.5 189.6,441.7 186.8,442.1 184.1,442.8 181.5,443.6 178.9,444.7 176.4,445.9 174,447.3 
			171.7,448.9 169.5,450.6 167.5,452.5 165.5,454.5 163.7,456.6 162.1,458.8 160.5,461 158.6,464.1 		"/>
	</g>
</g>
</svg>
