<?xml version="1.0" encoding="utf-8"?>
<!-- Generator: Adobe Illustrator 21.1.0, SVG Export Plug-In . SVG Version: 6.00 Build 0)  -->
<svg version="1.1" id="レイヤー_1" xmlns="http://www.w3.org/2000/svg" xmlns:xlink="http://www.w3.org/1999/xlink" x="0px"
	 y="0px" viewBox="0 0 1040 1040" style="enable-background:new 0 0 1040 1040;" xml:space="preserve">
<style type="text/css">
	.st0{fill:#474747;stroke:#474747;stroke-width:3;stroke-miterlimit:10;}
	.st1{fill:#474747;}
	.st2{fill:none;stroke:#474747;stroke-width:7;stroke-linecap:round;stroke-miterlimit:10;}
</style>
<g>
	<g>
		<path class="st0" d="M460.9,465.5v121.4h-4.1V465.5H460.9z"/>
		<path class="st0" d="M538.4,465.5c11.7,0,20.9,2.7,27.5,8.5c6.5,5.4,9.7,13.4,9.7,23.8c0,7.5-2.2,14.1-6.3,19.7
			c-4.4,5.4-10.4,8.8-18.2,10.5v0.3c13.4,2.9,20.7,10.7,21.9,23.3l1.5,17.3c0.7,7.5,2.2,13.4,4.9,17.8h-4.6
			c-2.4-4.4-3.7-10-4.2-16.8l-1.5-18c-0.7-8-4.1-13.8-9.9-17.3c-5.1-3.1-11.9-4.6-20.6-4.6H493v56.8h-4.1V465.5H538.4z M493,526
			h45.6c10.5,0,18.9-2.7,24.8-8.2c5.4-5.1,8.2-11.7,8.2-20.1c0-9.2-2.5-16-7.6-20.7c-5.6-5.1-14.1-7.5-25.5-7.5H493V526z"/>
		<path class="st0" d="M730.9,465.5v117.3h77.9v4.1h-81.9V465.5H730.9z"/>
		<path class="st0" d="M909.2,465.5v4.1h-79.4v52h75.5v4.1h-75.5v57.1h82.3v4.1h-86.4V465.5H909.2z"/>
		<path class="st1" d="M372.5,591.9c-36.3,0-65.8-29.5-65.8-65.8s29.5-65.8,65.8-65.8c25.2,0,48.5,14.7,59.4,37.4l-6.3,3
			c-9.7-20.3-30.5-33.4-53-33.4c-32.4,0-58.8,26.4-58.8,58.8c0,32.4,26.4,58.8,58.8,58.8c20.1,0,38.6-10.1,49.5-26.9l5.9,3.8
			C415.7,580.6,395,591.9,372.5,591.9z"/>
		<path class="st1" d="M653.5,591.9c-36.3,0-65.8-29.5-65.8-65.8s29.5-65.8,65.8-65.8c25.2,0,48.5,14.7,59.4,37.4l-6.3,3
			c-9.7-20.3-30.5-33.4-53-33.4c-32.4,0-58.8,26.4-58.8,58.8c0,32.4,26.4,58.8,58.8,58.8c20.1,0,38.6-10.1,49.5-26.9l5.9,3.8
			C696.7,580.6,676,591.9,653.5,591.9z"/>
	</g>
	<polyline class="st2" points="283.2,520 283.1,517.2 282.7,514.5 282.2,511.7 281.5,509 280.5,506.4 279.4,503.8 278.1,501.4 
		276.7,499 275.1,496.7 273.4,494.5 271.6,492.4 269.7,490.5 267.8,488.6 265.8,486.8 263.8,485.1 261.7,483.5 259.7,482 
		257.7,480.6 255.7,479.2 253.7,477.8 251.8,476.4 249.9,475.1 248,473.8 246.2,472.5 244.4,471.1 242.7,469.7 241,468.3 
		239.3,466.8 237.6,465.4 235.8,463.8 234.1,462.2 232.4,460.6 230.6,459 228.7,457.4 226.8,455.7 224.8,454.1 222.8,452.5 
		220.6,450.9 218.4,449.4 216.1,447.9 213.7,446.6 211.3,445.4 208.7,444.3 206.1,443.4 203.4,442.6 200.7,442 197.9,441.6 
		195.1,441.4 192.4,441.4 189.6,441.6 186.8,442 184.1,442.6 181.5,443.5 178.9,444.5 176.4,445.8 174,447.2 171.7,448.8 
		169.5,450.5 167.5,452.4 165.5,454.4 163.7,456.5 162,458.7 160.5,460.9 159,463.2 157.7,465.5 156.5,467.9 155.4,470.2 
		154.3,472.6 153.3,474.9 152.4,477.2 151.4,479.4 150.6,481.6 149.7,483.8 148.8,485.9 147.9,488 147,490 146.1,492 145.1,494 
		144.1,496 143,498 141.9,500 140.8,502 139.6,504.1 138.4,506.2 137.2,508.3 136,510.5 134.9,512.8 133.7,515.1 132.6,517.5 
		131.6,520 130.7,522.5 129.9,525.1 129.2,527.8 128.6,530.5 128.2,533.3 128,536 127.9,538.8 128.1,541.6 128.4,544.4 128.9,547.1 
		129.7,549.8 130.6,552.4 131.7,555 133.1,557.4 134.6,559.7 136.3,562 138.1,564 140.1,566 142.3,567.8 144.5,569.4 146.8,570.9 
		149.3,572.3 151.7,573.5 154.3,574.6 156.8,575.5 159.4,576.3 162,577.1 164.5,577.7 167,578.2 169.5,578.7 172,579.1 174.4,579.5 
		176.7,579.9 179.1,580.3 181.3,580.7 183.6,581.1 185.8,581.5 188,581.9 190.1,582.4 192.3,583 194.5,583.5 196.7,584.1 
		198.9,584.8 201.1,585.5 203.4,586.1 205.7,586.8 208.1,587.5 210.6,588.2 213.1,588.8 215.6,589.3 218.2,589.8 220.9,590.2 
		223.6,590.5 226.4,590.6 229.1,590.6 231.9,590.5 234.6,590.2 237.4,589.7 240.1,589 242.8,588.1 245.3,587.1 247.8,585.9 
		250.2,584.4 252.5,582.8 254.7,581.1 256.7,579.1 258.5,577.1 260.2,574.8 261.7,572.5 263.1,570.1 264.3,567.5 265.3,564.9 
		266.1,562.3 266.8,559.6 267.4,556.9 267.8,554.2 268,551.5 268.2,548.9 268.3,546.2 268.3,543.6 268.2,541.1 268.1,538.6 
		268,536.1 267.8,533.7 267.7,531.3 267.5,529 267.4,526.7 267.3,524.5 267.2,522.2 267.2,520 267.2,517.8 267.3,515.5 267.4,513.3 
		267.5,511 267.7,508.7 267.8,506.3 268,503.9 268.1,501.4 268.2,498.9 268.3,496.4 268.3,493.8 268.2,491.1 268,488.5 267.8,485.8 
		267.4,483.1 266.8,480.4 266.1,477.7 265.3,475.1 264.3,472.5 263.1,469.9 261.7,467.5 260.2,465.2 258.5,462.9 256.7,460.9 
		254.7,458.9 252.5,457.2 250.2,455.6 247.8,454.1 245.3,452.9 242.8,451.9 240.1,451 237.4,450.3 234.6,449.8 231.9,449.5 
		229.1,449.4 226.4,449.4 223.6,449.5 220.9,449.8 218.2,450.2 215.6,450.7 213.1,451.2 210.6,451.8 208.1,452.5 205.7,453.2 
		203.4,453.9 201.1,454.5 198.9,455.2 196.7,455.9 194.5,456.5 192.3,457 190.1,457.6 188,458.1 185.8,458.5 183.6,458.9 
		181.3,459.3 179.1,459.7 176.7,460.1 174.4,460.5 172,460.9 169.5,461.3 167,461.8 164.5,462.3 162,462.9 159.4,463.7 156.8,464.5 
		154.3,465.4 151.7,466.5 149.3,467.7 146.8,469.1 144.5,470.6 142.3,472.2 140.1,474 138.1,476 136.3,478 134.6,480.3 133.1,482.6 
		131.7,485 130.6,487.6 129.7,490.2 128.9,492.9 128.4,495.6 128.1,498.4 127.9,501.2 128,504 128.2,506.7 128.6,509.5 129.2,512.2 
		129.9,514.9 130.7,517.5 131.6,520 132.6,522.5 133.7,524.9 134.9,527.2 136,529.5 137.2,531.7 138.4,533.8 139.6,535.9 140.8,538 
		141.9,540 143,542 144.1,544 145.1,546 146.1,548 147,550 147.9,552 148.8,554.1 149.7,556.2 150.6,558.4 151.4,560.6 152.4,562.8 
		153.3,565.1 154.3,567.4 155.4,569.8 156.5,572.1 157.7,574.5 159,576.8 160.5,579.1 162,581.3 163.7,583.5 165.5,585.6 
		167.5,587.6 169.5,589.5 171.7,591.2 174,592.8 176.4,594.2 178.9,595.5 181.5,596.5 184.1,597.4 186.8,598 189.6,598.4 
		192.4,598.6 195.1,598.6 197.9,598.4 200.7,598 203.4,597.4 206.1,596.6 208.7,595.7 211.3,594.6 213.7,593.4 216.1,592.1 
		218.4,590.6 220.6,589.1 222.8,587.5 224.8,585.9 226.8,584.3 228.7,582.6 230.6,581 232.4,579.4 234.1,577.8 235.8,576.2 
		237.6,574.6 239.3,573.2 241,571.7 242.7,570.3 244.4,568.9 246.2,567.5 248,566.2 249.9,564.9 251.8,563.6 253.7,562.2 
		255.7,560.8 257.7,559.4 259.7,558 261.7,556.5 263.8,554.9 265.8,553.2 267.8,551.4 269.7,549.5 271.6,547.6 273.4,545.5 
		275.1,543.3 276.7,541 278.1,538.6 279.4,536.2 280.5,533.6 281.5,531 282.2,528.3 282.7,525.5 283.1,522.8 283.2,520 	"/>
</g>
</svg>
