<?xml version="1.0" encoding="utf-8"?>
<!-- Generator: Adobe Illustrator 21.1.0, SVG Export Plug-In . SVG Version: 6.00 Build 0)  -->
<svg version="1.1" id="レイヤー_1" xmlns="http://www.w3.org/2000/svg" xmlns:xlink="http://www.w3.org/1999/xlink" x="0px"
	 y="0px" viewBox="0 0 1040 1040" style="enable-background:new 0 0 1040 1040;" xml:space="preserve">
<style type="text/css">
	.st0{fill:none;stroke:#474747;stroke-width:10;stroke-linecap:round;stroke-miterlimit:10;}
	.st1{fill:#474747;stroke:#474747;stroke-width:3;stroke-miterlimit:10;}
	.st2{fill:#474747;}
</style>
<polyline class="st0" points="1024.2,520 1023.5,501.9 1021.4,484 1018,466.2 1013.2,448.7 1007.1,431.7 999.9,415 991.6,399 
	982.2,383.5 972,368.6 961,354.5 949.3,341 937.1,328.1 924.4,316 911.5,304.5 898.3,293.6 885.1,283.2 871.9,273.3 858.7,263.8 
	845.7,254.7 832.9,245.8 820.4,237.1 808.1,228.4 796,219.8 784.2,211.1 772.7,202.3 761.3,193.4 750.1,184.2 739,174.7 728,165 
	716.8,155 705.6,144.8 694.2,134.4 682.5,123.8 670.5,113.1 658.1,102.4 645.3,91.8 631.9,81.3 618.1,71.1 603.7,61.2 588.7,51.9 
	573.1,43.2 557.1,35.3 540.5,28.2 523.5,22.1 506.1,17.1 488.4,13.2 470.5,10.5 452.5,9.2 434.3,9.2 416.3,10.5 398.4,13.3 
	380.8,17.4 363.6,22.9 346.8,29.7 330.6,37.7 315,46.9 300.1,57.2 286,68.6 272.6,80.8 260,93.7 248.3,107.4 237.4,121.6 
	227.3,136.2 218,151.1 209.3,166.3 201.3,181.5 193.9,196.7 187.1,211.9 180.6,226.9 174.5,241.7 168.6,256.3 162.8,270.6 
	157.1,284.6 151.4,298.4 145.7,311.9 139.7,325.2 133.6,338.3 127.2,351.3 120.6,364.2 113.7,377.2 106.6,390.2 99.2,403.3 
	91.6,416.7 84,430.3 76.2,444.2 68.5,458.5 60.9,473.2 53.5,488.3 46.4,503.9 39.9,520 33.8,536.5 28.5,553.4 23.9,570.7 
	20.3,588.3 17.7,606.1 16.1,624.2 15.8,642.3 16.6,660.4 18.8,678.4 22.2,696.1 27,713.6 33.1,730.6 40.5,747.1 49.1,763 59,778.2 
	70,792.6 82,806.1 95,818.7 108.8,830.4 123.4,841.1 138.7,850.9 154.4,859.7 170.5,867.6 186.9,874.5 203.5,880.7 220.2,886 
	236.8,890.7 253.4,894.7 269.8,898.3 285.9,901.4 301.9,904.2 317.5,906.7 332.9,909.2 347.9,911.6 362.7,914 377.3,916.6 
	391.6,919.3 405.8,922.3 419.9,925.5 434,929 448.1,932.7 462.3,936.7 476.7,940.9 491.3,945.2 506.1,949.7 521.3,954.1 
	536.8,958.5 552.7,962.8 568.9,966.8 585.5,970.3 602.5,973.4 619.8,975.9 637.4,977.7 655.2,978.7 673.1,978.7 691.1,977.8 
	709.1,975.8 726.9,972.6 744.5,968.2 761.7,962.7 778.5,955.9 794.7,947.9 810.3,938.6 825.1,928.2 839,916.7 852.1,904.2 
	864.1,890.7 875.1,876.3 884.9,861.1 893.7,845.2 901.4,828.8 908,812 913.5,794.8 918,777.4 921.6,759.8 924.2,742.3 926,724.8 
	927.2,707.5 927.7,690.3 927.7,673.4 927.2,656.8 926.5,640.5 925.6,624.6 924.6,608.9 923.5,593.6 922.6,578.5 921.8,563.7 
	921.1,549 920.8,534.5 920.6,520 920.8,505.5 921.1,491 921.8,476.3 922.6,461.5 923.5,446.4 924.6,431.1 925.6,415.4 926.5,399.5 
	927.2,383.2 927.7,366.6 927.7,349.7 927.2,332.5 926,315.2 924.2,297.7 921.6,280.2 918,262.6 913.5,245.2 908,228 901.4,211.2 
	893.7,194.8 884.9,178.9 875.1,163.7 864.1,149.3 852.1,135.8 839,123.3 825.1,111.8 810.3,101.4 794.7,92.1 778.5,84.1 761.7,77.3 
	744.5,71.8 726.9,67.4 709.1,64.2 691.1,62.2 673.1,61.3 655.2,61.3 637.4,62.3 619.8,64.1 602.5,66.6 585.5,69.7 568.9,73.2 
	552.7,77.2 536.8,81.5 521.3,85.9 506.1,90.3 491.3,94.8 476.7,99.1 462.3,103.3 448.1,107.3 434,111 419.9,114.5 405.8,117.7 
	391.6,120.7 377.3,123.4 362.7,126 347.9,128.4 332.9,130.8 317.5,133.3 301.9,135.8 285.9,138.6 269.8,141.7 253.4,145.3 
	236.8,149.3 220.2,154 203.5,159.3 186.9,165.5 170.5,172.4 154.4,180.3 138.7,189.1 123.4,198.9 108.8,209.6 95,221.3 82,233.9 
	70,247.4 59,261.8 49.1,277 40.5,292.9 33.1,309.4 27,326.4 22.2,343.9 18.8,361.6 16.6,379.6 15.8,397.7 16.1,415.8 17.7,433.9 
	20.3,451.7 23.9,469.3 28.5,486.6 33.8,503.5 39.9,520 46.4,536.1 53.5,551.7 60.9,566.8 68.5,581.5 76.2,595.8 84,609.7 
	91.6,623.3 99.2,636.7 106.6,649.8 113.7,662.8 120.6,675.8 127.2,688.7 133.6,701.7 139.7,714.8 145.7,728.1 151.4,741.6 
	157.1,755.4 162.8,769.4 168.6,783.7 174.5,798.3 180.6,813.1 187.1,828.1 193.9,843.3 201.3,858.5 209.3,873.7 218,888.9 
	227.3,903.8 237.4,918.4 248.3,932.6 260,946.3 272.6,959.2 286,971.4 300.1,982.8 315,993.1 330.6,1002.3 346.8,1010.3 
	363.6,1017.1 380.8,1022.6 398.4,1026.7 416.3,1029.5 434.3,1030.8 452.5,1030.8 470.5,1029.5 488.4,1026.8 506.1,1022.9 
	523.5,1017.9 540.5,1011.8 557.1,1004.7 573.1,996.8 588.7,988.1 603.7,978.8 618.1,968.9 631.9,958.7 645.3,948.2 658.1,937.6 
	670.5,926.9 682.5,916.2 694.2,905.6 705.6,895.2 716.8,885 728,875 739,865.3 750.1,855.8 761.3,846.6 772.7,837.7 784.2,828.9 
	796,820.2 808.1,811.6 820.4,802.9 832.9,794.2 845.7,785.3 858.7,776.2 871.9,766.7 885.1,756.8 898.3,746.4 911.5,735.5 
	924.4,724 937.1,711.9 949.3,699 961,685.5 972,671.4 982.2,656.5 991.6,641 999.9,625 1007.1,608.3 1013.2,591.3 1018,573.8 
	1021.4,556 1023.5,538.1 1024.2,520 "/>
<g>
	<path class="st1" d="M367.6,459.2v121.4h-4.1V459.2H367.6z"/>
	<path class="st1" d="M445.1,459.2c11.7,0,20.9,2.7,27.5,8.5c6.5,5.4,9.7,13.4,9.7,23.8c0,7.5-2.2,14.1-6.3,19.7
		c-4.4,5.4-10.4,8.8-18.2,10.5v0.3c13.4,2.9,20.7,10.7,21.9,23.3l1.5,17.3c0.7,7.5,2.2,13.4,4.9,17.8h-4.6c-2.4-4.4-3.7-10-4.2-16.8
		l-1.5-18c-0.7-8-4.1-13.8-9.9-17.3c-5.1-3.1-11.9-4.6-20.6-4.6h-45.6v56.8h-4.1V459.2H445.1z M399.7,519.7h45.6
		c10.5,0,18.9-2.7,24.8-8.2c5.4-5.1,8.2-11.7,8.2-20.1c0-9.2-2.5-16-7.6-20.7c-5.6-5.1-14.1-7.5-25.5-7.5h-45.5V519.7z"/>
	<path class="st1" d="M637.6,459.2v117.3h77.9v4.1h-81.9V459.2H637.6z"/>
	<path class="st1" d="M815.9,459.2v4.1h-79.4v52H812v4.1h-75.5v57.1h82.3v4.1h-86.4V459.2H815.9z"/>
	<path class="st2" d="M283.3,581.8c-34.2,0-62-27.8-62-62c0-34.2,27.8-62,62-62c23.7,0,45.7,13.8,55.9,35.2l-6.3,3
		c-9.1-19-28.6-31.3-49.6-31.3c-30.3,0-55,24.7-55,55s24.7,55,55,55c18.8,0,36.1-9.4,46.3-25.2l5.9,3.8
		C323.9,571.2,304.4,581.8,283.3,581.8z"/>
	<path class="st2" d="M557.5,582.2c-34.2,0-62-27.8-62-62c0-34.2,27.8-62,62-62c23.7,0,45.7,13.8,55.9,35.2l-6.3,3
		c-9.1-19-28.6-31.3-49.6-31.3c-30.3,0-55,24.7-55,55s24.7,55,55,55c18.8,0,36.1-9.4,46.3-25.2l5.9,3.8
		C598.2,571.6,578.7,582.2,557.5,582.2z"/>
</g>
</svg>
