<?xml version="1.0" encoding="utf-8"?>
<!-- Generator: Adobe Illustrator 21.1.0, SVG Export Plug-In . SVG Version: 6.00 Build 0)  -->
<svg version="1.1" id="レイヤー_1" xmlns="http://www.w3.org/2000/svg" xmlns:xlink="http://www.w3.org/1999/xlink" x="0px"
	 y="0px" viewBox="0 0 1040 1040" style="enable-background:new 0 0 1040 1040;" xml:space="preserve">
<style type="text/css">
	.st0{fill:url(#SVGID_1_);}
	.st1{fill:url(#SVGID_2_);}
	.st2{fill:url(#SVGID_3_);}
	.st3{fill:url(#SVGID_4_);}
	.st4{fill:url(#SVGID_5_);}
	.st5{fill:url(#SVGID_6_);}
	.st6{fill:#474747;stroke:#474747;stroke-width:3;stroke-miterlimit:10;}
	.st7{fill:#474747;}
	.st8{fill:url(#SVGID_7_);}
</style>
<linearGradient id="SVGID_1_" gradientUnits="userSpaceOnUse" x1="958.8011" y1="755.6689" x2="634.286" y2="1013.7999">
	<stop  offset="0.2" style="stop-color:#A4C8C8"/>
	<stop  offset="0.4988" style="stop-color:#A3BCE2"/>
	<stop  offset="0.8" style="stop-color:#A4ABD6"/>
</linearGradient>
<path class="st0" d="M931,722.9c0-0.2,0-0.4,0-0.6c0-0.1,0-0.3,0-0.4c0-0.2-0.1-0.3-0.1-0.5c0-0.2-0.1-0.3-0.1-0.5
	c0-0.1-0.1-0.3-0.2-0.4c-0.1-0.2-0.1-0.3-0.2-0.5c-0.1-0.1-0.2-0.2-0.2-0.3c-0.1-0.2-0.2-0.3-0.3-0.5c0,0,0,0-0.1-0.1
	c-0.1-0.1-0.2-0.2-0.3-0.2c-0.1-0.1-0.3-0.3-0.4-0.4c-0.1-0.1-0.3-0.2-0.4-0.3c-0.1-0.1-0.3-0.2-0.4-0.3c-0.2-0.1-0.3-0.1-0.5-0.2
	c-0.1-0.1-0.3-0.1-0.4-0.2c-0.2,0-0.4-0.1-0.5-0.1c-0.1,0-0.2-0.1-0.3-0.1c0,0-0.1,0-0.1,0c-0.2,0-0.4,0-0.6,0c-0.1,0-0.3,0-0.4,0
	c-0.2,0-0.4,0.1-0.5,0.1c-0.1,0-0.3,0.1-0.4,0.1c-0.2,0.1-0.3,0.1-0.5,0.2c-0.1,0.1-0.3,0.1-0.4,0.2c-0.1,0.1-0.2,0.2-0.4,0.2
	c-0.2,0.1-0.3,0.2-0.4,0.3c0,0,0,0-0.1,0.1l-14.5,12.9l-13.1,10.8l-13.1,10.3l-13.1,9.8l-13.1,9.5l-38.3,26.7L793,816.2l-11.9,8.8
	l-11.5,8.8l-11.4,8.9l-11.3,9.3l-11.2,9.6l-11,9.7l-11.2,10l-22.6,20.6l-11.7,10.6l-11.9,10.6l-12.4,10.7l-12.7,10.5l-13.3,10.4
	l-22,16.3c0,0-0.1,0.1-0.1,0.1c-0.1,0.1-0.3,0.2-0.4,0.4c-0.1,0.1-0.2,0.2-0.3,0.3c-0.1,0.1-0.2,0.3-0.3,0.4
	c-0.1,0.1-0.2,0.3-0.3,0.4c-0.1,0.1-0.1,0.3-0.2,0.4c-0.1,0.2-0.1,0.3-0.2,0.5c0,0.1-0.1,0.3-0.1,0.4c0,0.2-0.1,0.3-0.1,0.5
	c0,0,0,0.1,0,0.1c0,0.1,0,0.2,0,0.3c0,0.2,0,0.4,0,0.5c0,0.2,0,0.3,0.1,0.5c0,0.2,0.1,0.3,0.1,0.5c0,0.2,0.1,0.3,0.2,0.5
	c0.1,0.1,0.1,0.3,0.2,0.4c0.1,0.2,0.2,0.3,0.3,0.5c0.1,0.1,0.1,0.2,0.2,0.3c0,0,0.1,0.1,0.1,0.1c0,0,0.1,0.1,0.1,0.1
	c0.4,0.5,0.8,0.8,1.3,1.1c0,0,0.1,0.1,0.1,0.1c0.3,0.1,0.5,0.2,0.8,0.3c0.1,0,0.1,0,0.2,0c0.3,0.1,0.6,0.1,0.9,0.2c0,0,0,0,0,0
	l27.6,2.7l18,1l18.3,0l18.1-0.9l18.3-2l18.1-3.2l17.9-4.5l17.5-5.6l17.2-6.9l16.5-8.2l15.9-9.5l15.1-10.6l14.2-11.7l13.4-12.7
	l12.3-13.8l11.2-14.7l10-15.5l9-16.2l7.9-16.7l6.7-17.1l5.6-17.5l4.6-17.7l3.7-17.9l2.6-17.8L931,722.9C931,723,931,722.9,931,722.9
	z M919.2,741.7l-2.6,17.2l-3.5,17.3l-4.4,17.1l-5.4,16.9l-6.5,16.5l-7.6,16.1l-8.6,15.6l-9.6,14.9l-10.8,14.1l-11.7,13.2L835.7,913
	l-13.6,11.3l-14.5,10.2l-15.3,9.1l-15.9,7.8L760,958l-16.9,5.4l-17.3,4.3l-17.5,3.1l-17.7,2l-17.7,0.9h-17.6l-17.6-1l-14.5-1.4
	l11.6-8.6l13.5-10.6l12.9-10.7l12.5-10.8l12-10.7l34.3-31.2l11.2-10l10.9-9.7l11.1-9.5l11.1-9.1l11.3-8.8l11.4-8.7l11.7-8.6
	l24.4-17.3l38.4-26.7l13.3-9.6l13.2-9.9l13.3-10.5l13.3-11l5.2-4.6L919.2,741.7z"/>
<linearGradient id="SVGID_2_" gradientUnits="userSpaceOnUse" x1="604.2911" y1="1021.1522" x2="197.5689" y2="927.2531">
	<stop  offset="0.2" style="stop-color:#A4ABD6"/>
	<stop  offset="0.5" style="stop-color:#A59ACA"/>
	<stop  offset="0.8" style="stop-color:#BAA1CC"/>
</linearGradient>
<path class="st1" d="M614.8,975.1c0-0.2,0-0.3,0-0.5c0-0.2,0-0.3-0.1-0.5c0-0.2-0.1-0.3-0.1-0.5c0-0.2-0.1-0.3-0.1-0.5
	c-0.1-0.2-0.2-0.3-0.2-0.5c-0.1-0.1-0.1-0.2-0.2-0.3c0,0,0,0-0.1-0.1c-0.1-0.2-0.2-0.3-0.3-0.4c-0.1-0.1-0.2-0.2-0.3-0.3
	c-0.1-0.1-0.3-0.2-0.4-0.3c-0.1-0.1-0.2-0.2-0.3-0.3c-0.1-0.1-0.3-0.2-0.4-0.3c-0.1-0.1-0.3-0.2-0.4-0.2c-0.1-0.1-0.3-0.1-0.4-0.1
	c-0.2-0.1-0.3-0.1-0.5-0.2c0,0-0.1,0-0.1,0l-24.2-4.7l-16.5-3.5l-16.1-4l-15.8-4.3l-15.5-4.4l-15.1-4.4l-14.8-4.5l-29.1-8.5l-14.3-4
	l-14.2-3.7l-14.1-3.5l-14.3-3.2l-14.2-3l-14.5-2.7l-14.7-2.6l-60.7-9.8l-15.9-2.8l-16-3.1l-16.3-3.6l-16.5-4l-24-6.8
	c-0.1,0-0.2,0-0.3,0c-0.2,0-0.4-0.1-0.5-0.1c-0.2,0-0.3,0-0.5,0c-0.2,0-0.3,0-0.5,0c-0.2,0-0.3,0-0.5,0.1c-0.2,0-0.3,0.1-0.5,0.1
	c-0.2,0-0.3,0.1-0.5,0.2c-0.1,0.1-0.3,0.1-0.4,0.2c-0.2,0.1-0.3,0.2-0.5,0.3c-0.1,0.1-0.2,0.1-0.2,0.1c0,0-0.1,0.1-0.1,0.1
	c-0.1,0.1-0.3,0.2-0.4,0.4c-0.1,0.1-0.2,0.2-0.3,0.3c-0.1,0.1-0.2,0.3-0.3,0.4c-0.1,0.1-0.2,0.3-0.3,0.4c-0.1,0.1-0.1,0.3-0.2,0.4
	c-0.1,0.2-0.1,0.3-0.2,0.5c0,0.1,0,0.1-0.1,0.2c0,0.1,0,0.2-0.1,0.3c0,0.2-0.1,0.3-0.1,0.5c0,0.2,0,0.3,0,0.5c0,0.2,0,0.3,0,0.5
	c0,0.2,0,0.3,0.1,0.5c0,0.2,0.1,0.3,0.1,0.5c0,0.2,0.1,0.3,0.2,0.5c0.1,0.1,0.1,0.3,0.2,0.4c0.1,0.2,0.2,0.3,0.3,0.5
	c0.1,0.1,0.1,0.2,0.1,0.2l14.6,19.9l10.1,14.5l11,14.4l11.9,13.9l12.8,13.1l13.6,12.4l14.3,11.6l15.2,10.5l15.9,9.4l16.5,8.2l17.1,7
	l17.6,5.6l18,4.2l18.3,2.9l18.4,1.3l18.7,0l18.2-1.3l18.3-2.7l18-4l17.7-5.1l17.3-6.2l16.9-7.2l16.2-8l15.8-8.8l21.3-13.2
	c0.1,0,0.1-0.1,0.2-0.1c0.2-0.1,0.3-0.2,0.5-0.4c0.1-0.1,0.2-0.2,0.3-0.3c0.1-0.1,0.3-0.3,0.4-0.4c0.1-0.1,0.2-0.2,0.2-0.3
	c0.1-0.2,0.2-0.3,0.3-0.5c0.1-0.1,0.1-0.2,0.2-0.3c0.1-0.2,0.1-0.3,0.2-0.5c0-0.1,0.1-0.2,0.1-0.4c0,0,0-0.1,0-0.1
	c0-0.1,0-0.2,0-0.3C614.8,975.4,614.8,975.3,614.8,975.1z M586.2,983.8l-15.4,8.6l-15.8,7.8l-16.3,7l-16.7,6l-17.1,4.9l-17.4,3.8
	l-17.5,2.6l-17.6,1.3h-17.8l-17.6-1.3l-17.5-2.7l-17.2-4l-16.8-5.4l-16.5-6.7l-15.9-7.8l-15.3-9l-14.6-10.1l-13.8-11.2l-13.2-12
	l-12.4-12.7l-11.5-13.5l-10.7-14l-10-14.5l-6.1-8.3l10.1,2.9l16.8,4.1l16.5,3.6l16.3,3.1l16.1,2.8l60.7,9.8l14.5,2.6l14.2,2.7
	l14.1,3l14.1,3.2l14,3.5l14,3.7l14.2,4l28.9,8.5l14.9,4.5l15.2,4.4l15.6,4.4l15.9,4.3l16.3,4l16.8,3.6l11.8,2.3L586.2,983.8z"/>
<linearGradient id="SVGID_3_" gradientUnits="userSpaceOnUse" x1="174.4616" y1="907.6605" x2="-3.4362" y2="534.6899">
	<stop  offset="0.2" style="stop-color:#BAA1CC"/>
	<stop  offset="0.5" style="stop-color:#CFA7CD"/>
	<stop  offset="0.8" style="stop-color:#E2A1A3"/>
</linearGradient>
<path class="st2" d="M217,886.4c0.1-0.2,0.2-0.4,0.3-0.6c0-0.1,0.1-0.1,0.1-0.2c0,0,0,0,0,0c0-0.1,0-0.2,0.1-0.3
	c0.1-0.2,0.1-0.4,0.2-0.6c0-0.2,0-0.3,0-0.5c0-0.2,0-0.3,0-0.5c0-0.2,0-0.3-0.1-0.5c0-0.2,0-0.3-0.1-0.5c0-0.2-0.1-0.4-0.2-0.6
	c0-0.1-0.1-0.2-0.1-0.3l-11.4-25.4l-7.4-15.3l-6.7-15.1l-6.5-14.9l-6.1-14.8l-17.4-42.9l-5.7-13.8l-5.7-13.5l-6.1-13.5l-6.1-13.1
	l-6.5-13.2l-6.6-13l-6.9-13.1l-7.1-13.1l-15-26.5l-15.4-27.4l-7.7-14.2l-7.6-14.7l-7.3-15l-14.5-31.6c0,0,0-0.1-0.1-0.1
	c-0.1-0.2-0.2-0.3-0.3-0.5c-0.1-0.1-0.2-0.3-0.2-0.4c-0.1-0.1-0.2-0.2-0.3-0.4c-0.1-0.1-0.2-0.2-0.3-0.4c-0.1-0.1-0.2-0.2-0.4-0.3
	c-0.1-0.1-0.3-0.2-0.4-0.3c-0.1-0.1-0.3-0.1-0.4-0.2c-0.2-0.1-0.3-0.2-0.5-0.2c0,0-0.1,0-0.1,0c-0.1,0-0.2,0-0.3-0.1
	c-0.2,0-0.4-0.1-0.5-0.1c-0.2,0-0.3,0-0.5,0c-0.2,0-0.3,0-0.5,0c-0.2,0-0.3,0-0.5,0.1c-0.2,0-0.3,0.1-0.5,0.1
	c-0.2,0-0.3,0.1-0.5,0.2c-0.1,0-0.2,0.1-0.3,0.1c0,0-0.1,0-0.1,0.1c-0.2,0.1-0.3,0.2-0.5,0.3c-0.1,0.1-0.3,0.2-0.4,0.2
	c-0.1,0.1-0.2,0.2-0.4,0.3c-0.1,0.1-0.2,0.2-0.3,0.3c-0.1,0.1-0.2,0.2-0.3,0.4c-0.1,0.1-0.2,0.3-0.3,0.4c-0.1,0.1-0.1,0.3-0.2,0.4
	c-0.1,0.2-0.2,0.3-0.2,0.5c0,0,0,0.1,0,0.1l-10.5,33.4l-4.7,17.5l-3.7,17.9l-2.6,18.1l-1.6,18.4l-0.3,18.6l0.8,18.3l2.2,18.4l3.5,18
	l4.9,17.9l6.2,17.4l7.5,16.9l8.8,16.2l10.1,15.5L66,795.6l12.2,13.8l13.3,12.9l14,11.9l14.9,10.9l15.6,10l16,9l16.3,8l16.7,7l26,9.5
	c0,0,0.1,0,0.1,0c0.2,0.1,0.4,0.1,0.5,0.1c0.1,0,0.2,0,0.2,0.1c0.3,0,0.5,0.1,0.8,0.1c0,0,0,0,0,0c0,0,0,0,0,0c0,0,0,0,0,0
	c0.2,0,0.5,0,0.7-0.1c0.1,0,0.1,0,0.2,0c0.2,0,0.4-0.1,0.6-0.1c0,0,0.1,0,0.1,0c0.2-0.1,0.4-0.1,0.5-0.2c0,0,0,0,0.1,0
	c0.3-0.1,0.5-0.3,0.8-0.4c0.1,0,0.1-0.1,0.2-0.1c0.2-0.1,0.3-0.3,0.5-0.4c0.1-0.1,0.1-0.1,0.2-0.2c0.1-0.2,0.3-0.3,0.4-0.5
	C216.9,886.6,217,886.5,217,886.4z M172.6,863l-15.8-7.8l-15.5-8.7l-15-9.6l-14.3-10.5L98.4,815l-12.7-12.4l-11.8-13.2l-10.8-14.1
	l-9.7-14.9L45,744.9l-7.2-16.2l-6-16.6L27.1,695l-3.3-17.3L21.6,660l-0.8-17.8l0.3-17.8l1.6-17.8l2.6-17.5l3.5-17.3l4.5-17.1
	l6.5-20.9l9.1,19.9l7.5,15.2l7.7,14.9l7.7,14.4l15.4,27.5l15,26.4l7.1,12.9l6.9,12.9l6.6,12.8l6.4,13l6.1,13l6,13.2l5.7,13.4
	l5.7,13.8l17.4,42.9l6.1,14.9l6.5,15.1l6.8,15.2l7.4,15.3l6.5,14.5l-14.6-5.3L172.6,863z"/>
<linearGradient id="SVGID_4_" gradientUnits="userSpaceOnUse" x1="-4.9128" y1="504.1566" x2="176.9216" y2="131.3407">
	<stop  offset="0.2" style="stop-color:#E2A1A3"/>
	<stop  offset="0.5" style="stop-color:#F49B78"/>
	<stop  offset="0.8" style="stop-color:#F7B280"/>
</linearGradient>
<path class="st3" d="M219.8,156.8c0-0.2,0.1-0.3,0.1-0.5c0-0.2,0.1-0.3,0.1-0.5c0-0.2,0-0.3,0-0.5c0-0.2,0-0.3,0-0.5
	c0-0.1-0.1-0.3-0.1-0.4c0-0.2-0.1-0.4-0.1-0.5c0,0,0-0.1,0-0.1c0-0.1-0.1-0.2-0.1-0.3c-0.1-0.2-0.1-0.3-0.2-0.5
	c-0.1-0.1-0.2-0.3-0.3-0.4c-0.1-0.1-0.2-0.3-0.3-0.4c-0.1-0.1-0.2-0.2-0.3-0.3c-0.1-0.1-0.2-0.2-0.4-0.3c-0.1-0.1-0.3-0.2-0.4-0.3
	c-0.1-0.1-0.2-0.1-0.3-0.2c0,0-0.1,0-0.1,0c-0.2-0.1-0.3-0.1-0.5-0.2c-0.1-0.1-0.3-0.1-0.4-0.2c-0.2,0-0.3-0.1-0.5-0.1
	c-0.2,0-0.3-0.1-0.5-0.1c-0.1,0-0.3,0-0.5,0c-0.2,0-0.3,0-0.5,0c-0.1,0-0.3,0.1-0.4,0.1c-0.2,0-0.4,0.1-0.5,0.1c0,0-0.1,0-0.1,0
	l-28.1,10l-16.7,7l-16.4,8l-15.9,8.9l-15.6,10l-14.9,10.9l-14.1,11.9l-13.2,12.8l-12.3,13.8L55,258.8l-10.1,15.5l-8.8,16.2
	l-7.6,16.8l-6.2,17.4l-4.9,17.9l-3.5,18.1L11.6,379l-0.8,18.6l0.3,18.3l1.6,18.5l2.6,18.1l3.6,17.9l4.7,17.6l10.5,33.6
	c0,0,0,0.1,0.1,0.1c0,0.1,0.1,0.2,0.1,0.3c0.1,0.2,0.2,0.4,0.3,0.5c0.1,0.1,0.1,0.2,0.2,0.3c0.1,0.2,0.2,0.3,0.4,0.5
	c0.1,0.1,0.1,0.2,0.2,0.2c0.2,0.2,0.4,0.3,0.6,0.5c0,0,0.1,0.1,0.1,0.1c0.2,0.2,0.5,0.3,0.8,0.5c0,0,0.1,0,0.1,0
	c0.2,0.1,0.4,0.1,0.5,0.2c0,0,0,0,0,0c0.2,0.1,0.4,0.1,0.7,0.2c0.1,0,0.1,0,0.2,0c0.2,0,0.5,0.1,0.7,0.1l0,0c0,0,0,0,0,0
	c0,0,0,0,0,0c0.2,0,0.5,0,0.7-0.1c0.1,0,0.1,0,0.2,0c0.2,0,0.3-0.1,0.5-0.1c0,0,0,0,0,0c0,0,0.1,0,0.1,0c0.2-0.1,0.5-0.2,0.7-0.3
	c0.1,0,0.1-0.1,0.2-0.1c0.3-0.1,0.5-0.3,0.7-0.5l0,0c0.2-0.2,0.4-0.4,0.6-0.6c0.1-0.1,0.1-0.1,0.1-0.2c0.1-0.2,0.2-0.3,0.3-0.5
	c0-0.1,0.1-0.2,0.1-0.2c0,0,0.1-0.1,0.1-0.1L58,490.4l7.3-15l7.5-14.6l7.7-14.2l15.4-27.5l15-26.6l7.1-13.1l6.9-13.1l6.6-13l6.4-13
	l6.2-13.3l6-13.3l5.8-13.6l5.7-13.8l17.4-42.9l6.1-14.7l6.5-14.9l6.8-15.1l7.3-15.1l13.7-26c0,0,0-0.1,0-0.1
	c0.1-0.2,0.1-0.3,0.2-0.5C219.7,157.1,219.8,156.9,219.8,156.8z M196.9,179.2l-7.5,15.3l-6.9,15.4L176,225l-6.1,14.8l-17.4,42.9
	l-5.7,13.8l-5.7,13.4l-6,13.2l-6.1,13l-6.3,12.9l-6.6,12.8l-6.9,12.9l-7.1,12.9l-15,26.5l-15.4,27.6l-7.7,14.4l-7.6,14.7L49,486.1
	l-9.2,20l-6.5-20.9l-4.5-17.1l-3.5-17.3l-2.6-17.5l-1.6-17.8l-0.3-17.8l0.8-17.8l2.2-17.6l3.3-17.3l4.7-17.1l6-16.6l7.2-16.2
	l8.4-15.6l9.7-14.9l10.8-14.1l11.8-13.2L98.4,225l13.5-11.5l14.3-10.5l15-9.6l15.5-8.7l15.8-7.8l16.1-6.8l15.9-5.7L196.9,179.2z"/>
<linearGradient id="SVGID_5_" gradientUnits="userSpaceOnUse" x1="636.4164" y1="25.6393" x2="957.4142" y2="285.5782">
	<stop  offset="0.2" style="stop-color:#FCE19C"/>
	<stop  offset="0.5" style="stop-color:#FFF9B1"/>
	<stop  offset="0.8" style="stop-color:#D2E7AF"/>
</linearGradient>
<path class="st4" d="M931,314.9l-1.8-17.7l-2.6-17.7l-3.6-17.9l-4.6-17.6l-5.6-17.5l-6.7-17.1l-7.8-16.7l-9-16.2l-10-15.5
	l-11.2-14.7l-12.2-13.8l-13.4-12.8l-14.2-11.7l-15.1-10.6l-15.9-9.5l-16.5-8.2l-17.1-7L746,67l-17.9-4.5L710,59.3l-18.3-2l-18.3-0.9
	l-18.1,0l-18.1,1L610.5,60c-2.7,0.3-4.6,2.6-4.5,5.3c-0.1,1.7,0.6,3.3,2,4.4l20.9,15.6l13.3,10.4l12.7,10.5l12.3,10.6l12,10.7
	l34.3,31.2l11.2,10l11.1,9.7l11.1,9.5l11.3,9.3l11.5,9l11.6,8.9l11.9,8.8l24.4,17.3l38.2,26.7l13.1,9.4l13.2,9.9l13.2,10.4l13.1,9.8
	l14.3,12.8c1,0.8,2.1,1.3,3.3,1.3c1.4,0,2.7-0.6,3.7-1.7c1-1.1,1.4-2.5,1.2-3.8C931,315.6,931,315.2,931,314.9z M914.8,299.8
	l-13.5-10.1l-13.2-10.4l-13.4-10l-13.3-9.5L823.3,233L799,215.8l-11.7-8.6l-11.5-8.8l-11.4-8.9l-11.1-9.1l-11-9.4l-11-9.7l-11.2-10
	l-22.6-20.6l-11.7-10.6l-12.1-10.8l-12.4-10.7l-12.9-10.7L635,77.4l-11.6-8.6l14.4-1.5l17.5-1H673l17.7,0.9l17.7,2l17.5,3.1
	l17.3,4.3L760,82l16.5,6.7l15.9,7.8l15.3,9.1l14.5,10.2l13.6,11.3l12.8,12.2l11.7,13.2l10.8,14.1l9.6,14.9l8.6,15.6l7.6,16.1
	l6.5,16.5l5.4,16.9l4.4,17.1l3.5,17.3l2.6,17.3l0.6,5.9L914.8,299.8z"/>
<linearGradient id="SVGID_6_" gradientUnits="userSpaceOnUse" x1="972.4019" y1="311.3626" x2="972.4019" y2="728.6367">
	<stop  offset="0.2" style="stop-color:#D2E7AF"/>
	<stop  offset="0.5" style="stop-color:#A5D4AD"/>
	<stop  offset="0.8" style="stop-color:#A4C8C8"/>
</linearGradient>
<path class="st5" d="M1028.5,501.7l-2.1-18.3l-3.5-18.2l-4.9-17.9l-6.2-17.4l-7.3-17l-8.5-16.3l-9.6-15.8l-10.3-15.1l-11.2-14.4
	l-11.9-13.7l-23-24.3c-1-1.3-2.5-2.1-4.3-2c-2.3,0.1-4.1,1.8-4.6,3.9c0,0,0,0.1,0,0.1c0,0.2-0.1,0.4-0.1,0.6c0,0.2,0,0.3,0,0.5
	c0,0,0,0.1,0,0.1l1.7,33.2v16.7l-0.5,16.5l-0.7,16.2l-0.9,15.9l-1,15.7l-1.1,15.4l-0.9,15.1l-0.8,14.8l-0.7,14.7l-0.3,14.7
	l-0.2,14.5l0.2,14.7l0.3,14.5l0.7,14.9l0.8,14.8l0.9,15.2l1.1,15.3l1,15.7l0.9,15.8l0.7,16.2l0.5,16.5v16.7l-1.7,33.2
	c0,0.1,0,0.1,0,0.2c0,0.2,0,0.4,0,0.5c0,0.2,0,0.3,0.1,0.5c0,0.2,0.1,0.3,0.1,0.5c0,0.2,0.1,0.3,0.1,0.5c0.1,0.1,0.1,0.3,0.2,0.4
	c0.1,0.1,0.1,0.3,0.2,0.4c0.1,0.1,0.2,0.3,0.3,0.4c0.1,0.1,0.2,0.3,0.3,0.4c0,0,0.1,0.1,0.1,0.1c0.1,0.1,0.1,0.1,0.2,0.2
	c0.1,0.1,0.3,0.2,0.4,0.3c0.1,0.1,0.3,0.2,0.4,0.3c0.1,0.1,0.3,0.1,0.4,0.2c0.2,0.1,0.3,0.1,0.5,0.2c0.1,0,0.3,0.1,0.4,0.1
	c0.2,0,0.4,0.1,0.6,0.1c0.1,0,0.2,0,0.3,0c0.1,0,0.2,0,0.3,0c0,0,0,0,0,0c0,0,0,0,0,0c0,0,0,0,0,0c0.3,0,0.7,0,1-0.1
	c0,0,0.1,0,0.1,0c0.3-0.1,0.6-0.1,0.8-0.2c0.1,0,0.2-0.1,0.3-0.2c0.2-0.1,0.4-0.2,0.6-0.3c0.1-0.1,0.2-0.2,0.3-0.2
	c0.2-0.1,0.3-0.3,0.5-0.4c0,0,0.1-0.1,0.1-0.1l23.3-24.6l11.8-13.7l11.2-14.3l10.4-15.2l9.5-15.7l8.5-16.3l7.4-17l6.2-17.3l4.9-17.9
	l3.5-18.2l2.2-18.3l0.7-18.7L1028.5,501.7z M1018.5,537.7l-2.1,17.5l-3.3,17.4l-4.7,17.1l-6,16.7l-7.1,16.4l-8.1,15.7l-9.2,15.2
	l-10,14.7l-10.8,13.9l-11.5,13.3l-13.9,14.7l1-19.8l0-17.2l-0.5-16.8l-0.7-16.4l-0.9-15.9l-1-15.7l-1.1-15.2l-0.9-15.1l-0.8-14.8
	l-0.7-14.6l-0.3-14.4l-0.2-14.4l0.2-14.4l0.3-14.4l0.7-14.6l0.8-14.8l0.9-15l1.1-15.3l1-15.7l0.9-16l0.7-16.4l0.5-16.6l0-17.1l-1-20
	l13.9,14.7l11.5,13.3l10.8,13.9l10,14.7l9.2,15.2l8.1,15.7l7.1,16.4l6,16.7l4.7,17.1l3.3,17.4l2.1,17.5l0.7,17.7L1018.5,537.7z"/>
<g>
	<path class="st6" d="M362.6,459.2v121.4h-4.1V459.2H362.6z"/>
	<path class="st6" d="M440.1,459.2c11.7,0,20.9,2.7,27.5,8.5c6.5,5.4,9.7,13.4,9.7,23.8c0,7.5-2.2,14.1-6.3,19.7
		c-4.4,5.4-10.4,8.8-18.2,10.5v0.3c13.4,2.9,20.7,10.7,21.9,23.3l1.5,17.3c0.7,7.5,2.2,13.4,4.9,17.8h-4.6c-2.4-4.4-3.7-10-4.2-16.8
		l-1.5-18c-0.7-8-4.1-13.8-9.9-17.3c-5.1-3.1-11.9-4.6-20.6-4.6h-45.6v56.8h-4.1V459.2H440.1z M394.7,519.7h45.6
		c10.5,0,18.9-2.7,24.8-8.2c5.4-5.1,8.2-11.7,8.2-20.1c0-9.2-2.5-16-7.6-20.7c-5.6-5.1-14.1-7.5-25.5-7.5h-45.5V519.7z"/>
	<path class="st6" d="M632.6,459.2v117.3h77.9v4.1h-81.9V459.2H632.6z"/>
	<path class="st6" d="M810.9,459.2v4.1h-79.4v52H807v4.1h-75.5v57.1h82.3v4.1h-86.4V459.2H810.9z"/>
	<path class="st7" d="M278.3,581.8c-34.2,0-62-27.8-62-62s27.8-62,62-62c23.7,0,45.7,13.8,55.9,35.2l-6.3,3
		c-9.1-19-28.6-31.3-49.6-31.3c-30.3,0-55,24.7-55,55s24.7,55,55,55c18.8,0,36.1-9.4,46.3-25.2l5.9,3.8
		C318.9,571.2,299.4,581.8,278.3,581.8z"/>
	<path class="st7" d="M552.5,582.2c-34.2,0-62-27.8-62-62s27.8-62,62-62c23.7,0,45.7,13.8,55.9,35.2l-6.3,3
		c-9.1-19-28.6-31.3-49.6-31.3c-30.3,0-55,24.7-55,55s24.7,55,55,55c18.8,0,36.1-9.4,46.3-25.2l5.9,3.8
		C593.2,571.6,573.7,582.2,552.5,582.2z"/>
</g>
<linearGradient id="SVGID_7_" gradientUnits="userSpaceOnUse" x1="199.5005" y1="110.4202" x2="606.0191" y2="20.2972">
	<stop  offset="0.2" style="stop-color:#F7B280"/>
	<stop  offset="0.5" style="stop-color:#F9C887"/>
	<stop  offset="0.8" style="stop-color:#FCE19C"/>
</linearGradient>
<path class="st8" d="M613.6,61.5l-22.3-13.8l-15.8-8.8l-16.2-8l-16.8-7.2l-17.3-6.2l-17.7-5.1l-18-4l-18.2-2.8l-18.4-1.3l-18.6,0
	l-18.4,1.3l-18.3,2.8l-18,4.2l-17.6,5.6l-17.2,6.9l-16.5,8.2l-15.9,9.4l-15.2,10.5l-14.4,11.6l-13.6,12.4l-12.8,13.1l-11.9,13.9
	l-11.1,14.4l-10.2,14.8l-11.5,18.4c-0.8,0.7-1.4,1.7-1.6,2.7c-0.9,2.2-0.1,4.8,2,6.1c0.8,0.5,1.7,0.8,2.6,0.8c1.3,0,2.7-0.5,3.6-1.5
	l19.7-5.6l16.5-4l16.3-3.6l16-3.1l15.9-2.8l60.9-9.8l14.7-2.6l14.3-2.7l14.4-3l14.1-3.2l14.3-3.5l14.2-3.7l14.2-4l29.1-8.5l14.7-4.5
	l15.2-4.4l15.4-4.4L554,82l16.1-4l16.5-3.5l22.9-4.2c2.2,0.7,4.6-0.1,5.8-2.1C616.7,66,615.9,62.9,613.6,61.5z M584.6,64.8
	l-16.7,3.5l-16.4,4l-16.1,4.3l-15.5,4.4l-15.3,4.4L489.9,90l-28.9,8.5l-14.1,4l-14,3.7l-14.1,3.5l-14,3.2l-14.1,3l-14.2,2.7
	l-14.5,2.6l-60.9,9.8l-16.1,2.8l-16.1,3.1l-16.5,3.6l-16.7,4l-9.2,2.6l5.1-8.1l10-14.4l10.7-14l11.5-13.5l12.4-12.7l13.2-12
	l13.8-11.2l14.6-10.1l15.3-9l15.9-7.8l16.5-6.7l16.8-5.4l17.2-4l17.5-2.7l17.6-1.3h17.8l17.6,1.3l17.5,2.6l17.4,3.8l17.1,4.9l16.7,6
	l16.3,7l15.8,7.8l15.4,8.6l10.3,6.4L584.6,64.8z"/>
</svg>
