<?xml version="1.0" encoding="utf-8"?>
<!-- Generator: Adobe Illustrator 21.1.0, SVG Export Plug-In . SVG Version: 6.00 Build 0)  -->
<svg version="1.1" id="レイヤー_1" xmlns="http://www.w3.org/2000/svg" xmlns:xlink="http://www.w3.org/1999/xlink" x="0px"
	 y="0px" viewBox="0 0 1040 1040" style="enable-background:new 0 0 1040 1040;" xml:space="preserve">
<style type="text/css">
	.st0{fill:#7F7F7F;stroke:#474747;stroke-width:3;stroke-miterlimit:10;}
	.st1{fill:none;stroke:#474747;stroke-width:7;stroke-miterlimit:10;}
	.st2{fill:none;stroke:#474747;stroke-width:6;stroke-miterlimit:10;}
</style>
<g>
	<path class="st0" d="M348.7,465.3v121.4h-4.1V465.3H348.7z"/>
	<path class="st0" d="M426.2,465.3c11.7,0,20.9,2.7,27.5,8.5c6.5,5.4,9.7,13.4,9.7,23.8c0,7.5-2.2,14.1-6.3,19.7
		c-4.4,5.4-10.4,8.8-18.2,10.5v0.3c13.4,2.9,20.7,10.7,21.9,23.3l1.5,17.3c0.7,7.5,2.2,13.4,4.9,17.8h-4.6c-2.4-4.4-3.7-10-4.2-16.8
		l-1.5-18c-0.7-8-4.1-13.8-9.9-17.3c-5.1-3.1-11.9-4.6-20.6-4.6h-45.7v56.8h-4.1V465.3H426.2z M380.8,525.8h45.6
		c10.5,0,18.9-2.7,24.8-8.2c5.4-5.1,8.2-11.7,8.2-20.1c0-9.2-2.5-16-7.6-20.7c-5.6-5.1-14.1-7.5-25.5-7.5h-45.4V525.8z"/>
	<path class="st0" d="M618.7,465.3v117.3h77.9v4.1h-81.9V465.3H618.7z"/>
	<path class="st0" d="M797,465.3v4.1h-79.4v52h75.5v4.1h-75.5v57.1h82.3v4.1h-86.4V465.3H797z"/>
	<path class="st1" d="M312.7,559.7c-11.1,17.2-30.4,28.5-52.4,28.5c-34.4,0-62.3-27.9-62.3-62.3s27.9-62.3,62.3-62.3
		c24.8,0,46.2,14.5,56.2,35.4"/>
	<path class="st1" d="M593.7,559.7c-11.1,17.2-30.4,28.5-52.4,28.5c-34.4,0-62.3-27.9-62.3-62.3s27.9-62.3,62.3-62.3
		c24.8,0,46.2,14.5,56.2,35.4"/>
</g>
<polyline class="st2" points="177,526.1 176.9,523.7 176.6,521.2 176.2,518.8 175.5,516.5 174.7,514.2 173.7,511.9 172.6,509.8 
	171.3,507.7 169.9,505.7 168.5,503.7 166.9,501.9 165.2,500.2 163.5,498.5 161.8,497 160,495.5 158.2,494.1 156.4,492.8 
	154.6,491.5 152.9,490.3 151.2,489.1 149.5,487.9 147.8,486.7 146.2,485.5 144.6,484.4 143,483.2 141.5,482 140,480.7 138.5,479.5 
	137,478.1 135.5,476.8 134,475.4 132.4,474 130.8,472.6 129.2,471.1 127.5,469.7 125.8,468.2 124,466.8 122.1,465.5 120.2,464.1 
	118.2,462.9 116.1,461.7 113.9,460.6 111.7,459.7 109.4,458.8 107,458.2 104.6,457.6 102.2,457.3 99.8,457.1 97.3,457.1 94.9,457.3 
	92.5,457.6 90.1,458.2 87.8,458.9 85.5,459.9 83.3,460.9 81.2,462.2 79.2,463.6 77.3,465.1 75.5,466.8 73.8,468.5 72.2,470.4 
	70.7,472.3 69.3,474.3 68.1,476.3 66.9,478.3 65.8,480.4 64.8,482.4 63.9,484.5 63,486.5 62.2,488.5 61.4,490.5 60.6,492.4 
	59.9,494.3 59.1,496.2 58.3,498 57.5,499.8 56.7,501.6 55.8,503.3 54.9,505.1 54,506.8 53,508.6 52,510.3 51,512.1 50,514 
	48.9,515.9 47.9,517.8 46.9,519.8 45.9,521.8 44.9,523.9 44,526.1 43.2,528.3 42.5,530.6 41.9,532.9 41.4,535.3 41,537.7 
	40.8,540.2 40.8,542.6 40.9,545.1 41.2,547.5 41.6,549.9 42.3,552.3 43.1,554.6 44.1,556.8 45.3,558.9 46.6,561 48.1,562.9 
	49.7,564.7 51.5,566.5 53.3,568 55.3,569.5 57.4,570.8 59.5,572 61.7,573.1 63.9,574 66.1,574.8 68.4,575.5 70.6,576.2 72.9,576.7 
	75.1,577.2 77.3,577.6 79.4,578 81.5,578.3 83.6,578.7 85.6,579 87.6,579.3 89.6,579.7 91.5,580 93.5,580.4 95.4,580.9 97.3,581.3 
	99.2,581.9 101.1,582.4 103,583 105,583.5 107,584.1 109.1,584.7 111.2,585.3 113.3,585.9 115.5,586.5 117.7,586.9 120,587.4 
	122.4,587.7 124.7,587.9 127.1,588.1 129.6,588.1 132,587.9 134.4,587.7 136.8,587.2 139.2,586.7 141.5,585.9 143.8,585 146,583.9 
	148.1,582.7 150.1,581.3 152,579.7 153.7,578 155.4,576.2 156.8,574.2 158.2,572.2 159.4,570 160.4,567.8 161.3,565.5 162,563.2 
	162.7,560.9 163.1,558.5 163.5,556.1 163.7,553.8 163.9,551.4 164,549.1 164,546.8 163.9,544.6 163.8,542.4 163.7,540.2 
	163.5,538.1 163.4,536 163.3,534 163.2,532 163.1,530 163,528.1 163,526.1 163,524.1 163.1,522.2 163.2,520.2 163.3,518.2 
	163.4,516.2 163.5,514.1 163.7,512 163.8,509.8 163.9,507.6 164,505.4 164,503.1 163.9,500.8 163.7,498.4 163.5,496.1 163.1,493.7 
	162.7,491.3 162,489 161.3,486.7 160.4,484.4 159.4,482.2 158.2,480 156.8,478 155.4,476 153.7,474.2 152,472.5 150.1,471 
	148.1,469.5 146,468.3 143.8,467.2 141.5,466.3 139.2,465.5 136.8,465 134.4,464.5 132,464.3 129.6,464.1 127.1,464.1 124.7,464.3 
	122.4,464.5 120,464.8 117.7,465.3 115.5,465.7 113.3,466.3 111.2,466.9 109.1,467.5 107,468.1 105,468.7 103,469.2 101.1,469.8 
	99.2,470.4 97.3,470.9 95.4,471.3 93.5,471.8 91.5,472.2 89.6,472.5 87.6,472.9 85.6,473.2 83.6,473.5 81.5,473.9 79.4,474.2 
	77.3,474.6 75.1,475 72.9,475.5 70.6,476 68.4,476.7 66.1,477.4 63.9,478.2 61.7,479.1 59.5,480.2 57.4,481.4 55.3,482.7 
	53.3,484.2 51.5,485.7 49.7,487.5 48.1,489.3 46.6,491.2 45.3,493.3 44.1,495.4 43.1,497.6 42.3,499.9 41.6,502.3 41.2,504.7 
	40.9,507.1 40.8,509.6 40.8,512 41,514.5 41.4,516.9 41.9,519.3 42.5,521.6 43.2,523.9 44,526.1 44.9,528.3 45.9,530.4 46.9,532.4 
	47.9,534.4 48.9,536.3 50,538.2 51,540.1 52,541.9 53,543.6 54,545.4 54.9,547.1 55.8,548.9 56.7,550.6 57.5,552.4 58.3,554.2 
	59.1,556 59.9,557.9 60.6,559.8 61.4,561.7 62.2,563.7 63,565.7 63.9,567.7 64.8,569.8 65.8,571.8 66.9,573.9 68.1,575.9 
	69.3,577.9 70.7,579.9 72.2,581.8 73.8,583.7 75.5,585.4 77.3,587.1 79.2,588.6 81.2,590 83.3,591.3 85.5,592.3 87.8,593.3 
	90.1,594 92.5,594.6 94.9,594.9 97.3,595.1 99.8,595.1 102.2,594.9 104.6,594.6 107,594 109.4,593.4 111.7,592.5 113.9,591.6 
	116.1,590.5 118.2,589.3 120.2,588.1 122.1,586.7 124,585.4 125.8,584 127.5,582.5 129.2,581.1 130.8,579.6 132.4,578.2 134,576.8 
	135.5,575.4 137,574.1 138.5,572.7 140,571.5 141.5,570.2 143,569 144.6,567.8 146.2,566.7 147.8,565.5 149.5,564.3 151.2,563.1 
	152.9,561.9 154.6,560.7 156.4,559.4 158.2,558.1 160,556.7 161.8,555.2 163.5,553.7 165.2,552 166.9,550.3 168.5,548.5 
	169.9,546.5 171.3,544.5 172.6,542.5 173.7,540.3 174.7,538 175.5,535.7 176.2,533.4 176.6,531 176.9,528.5 177,526.1 "/>
</svg>
